<svg width="372" height="368" viewBox="0 0 372 368" fill="none" xmlns="http://www.w3.org/2000/svg">
<path d="M365.141 302.131C359.748 316.074 350.255 327.006 338.386 335.598C322.956 346.761 303.521 353.96 283.85 358.651C282.153 359.06 280.462 359.442 278.766 359.808C273.258 361.008 267.755 362.013 262.341 362.866C253.514 364.259 244.921 365.238 236.937 365.945C205.203 368.751 173.039 368.992 141.749 364.73C131.32 363.311 120.984 361.389 110.795 358.892C105.386 357.573 100.02 356.091 94.7001 354.431C87.0922 352.064 79.584 349.347 72.1964 346.242C68.1912 344.561 64.2223 342.771 60.2953 340.86C45.4097 333.624 30.7859 325.058 19.8434 312.644C8.89538 300.235 1.99952 283.375 4.75906 267.055C7.89028 248.494 22.3094 234.226 35.6241 220.922C48.9388 207.613 62.6514 192.23 63.6671 173.433C64.8291 152.061 49.1481 133.07 47.5303 111.724C45.9806 91.3041 57.562 72.099 71.3744 56.9834C95.4016 30.6894 127.628 12.0028 162.378 4.20121C197.133 -3.60039 234.255 -0.469171 267.21 13.0341C306.651 29.1866 329.877 79.5708 315.924 120.238C313.583 127.065 310.301 133.84 308.112 140.699C306.437 145.941 305.4 151.229 305.908 156.627C307.792 176.659 329.343 189.775 344.38 204.859C370.266 230.845 377.842 269.291 365.14 302.13L365.141 302.131Z" fill="#E7ECFD"/>
<path d="M168.662 57.4655H91.2598C88.889 57.4655 87.0347 55.4222 87.2642 53.0624L91.4843 9.6628C91.6844 7.60568 93.413 6.03662 95.4798 6.03662H172.882C175.253 6.03662 177.107 8.07994 176.877 10.4397L172.657 53.8394C172.457 55.8965 170.728 57.4655 168.662 57.4655Z" fill="#FBD15B"/>
<path d="M134.944 20.3946H105.771C104.523 20.3946 103.56 19.3978 103.62 18.1687L103.645 17.641C103.704 16.4115 104.763 15.4151 106.01 15.4151H135.183C136.43 15.4151 137.393 16.4119 137.334 17.641L137.309 18.1687C137.25 19.3982 136.191 20.3946 134.944 20.3946Z" fill="#7D6215"/>
<path d="M124.658 29.8287H105.317C104.07 29.8287 103.107 28.8319 103.166 27.6028L103.192 27.0752C103.251 25.8456 104.31 24.8492 105.557 24.8492H124.897C126.144 24.8492 127.108 25.8461 127.048 27.0752L127.023 27.6028C126.964 28.8324 125.905 29.8287 124.658 29.8287Z" fill="#7D6215"/>
<path d="M123.473 38.8052H104.132C102.885 38.8052 101.922 37.8088 101.981 36.5792L102.006 36.0516C102.065 34.822 103.124 33.8257 104.371 33.8257H123.712C124.959 33.8257 125.922 34.8225 125.863 36.0516L125.838 36.5792C125.779 37.8088 124.72 38.8052 123.473 38.8052Z" fill="#7D6215"/>
<path d="M123.049 47.6114H103.709C102.462 47.6114 101.498 46.6151 101.558 45.3855L101.583 44.8579C101.642 43.6283 102.701 42.6319 103.948 42.6319H123.289C124.536 42.6319 125.499 43.6283 125.44 44.8579L125.414 45.3855C125.355 46.6151 124.297 47.6114 123.049 47.6114Z" fill="#7D6215"/>
<path d="M101.46 17.7054C101.389 19.1908 100.109 20.3946 98.6027 20.3946C97.0962 20.3946 95.9329 19.1908 96.0042 17.7054C96.0755 16.2201 97.3548 15.0163 98.8613 15.0163C100.368 15.0163 101.531 16.2201 101.46 17.7054Z" fill="#7D6215"/>
<path d="M98.8507 35.8727C98.7794 37.358 97.5001 38.5619 95.9936 38.5619C94.4871 38.5619 93.3238 37.358 93.3951 35.8727C93.4664 34.3873 94.7456 33.1835 96.2521 33.1835C97.7586 33.1835 98.922 34.3873 98.8507 35.8727Z" fill="#7D6215"/>
<path d="M98.4004 45.2507C98.3291 46.7361 97.0498 47.9399 95.5433 47.9399C94.0368 47.9399 92.8735 46.7361 92.9448 45.2507C93.0161 43.7654 94.2953 42.5616 95.8018 42.5616C97.3083 42.5616 98.4717 43.7654 98.4004 45.2507Z" fill="#7D6215"/>
<path d="M105.039 137.969H8.3158C5.3534 137.969 3.03591 135.415 3.32295 132.467L8.59639 78.2336C8.84617 75.6631 11.0068 73.7026 13.5897 73.7026H110.312C113.274 73.7026 115.592 76.2561 115.305 79.2047L110.031 133.438C109.782 136.008 107.621 137.969 105.039 137.969Z" fill="#FBD15B"/>
<path d="M62.9035 91.6445H26.4485C24.8901 91.6445 23.6867 90.3992 23.7608 88.8628L23.7925 88.2036C23.8661 86.6672 25.1895 85.422 26.748 85.422H63.203C64.7615 85.422 65.9648 86.6672 65.8912 88.2036L65.8595 88.8628C65.7854 90.3992 64.4625 91.6445 62.904 91.6445H62.9035Z" fill="white"/>
<path d="M50.0507 103.433H25.8818C24.3233 103.433 23.12 102.188 23.1936 100.652L23.2253 99.9925C23.2989 98.4561 24.6223 97.2109 26.1808 97.2109H50.3497C51.9081 97.2109 53.1115 98.4561 53.0379 99.9925L53.0062 100.652C52.9326 102.188 51.6091 103.433 50.0507 103.433Z" fill="#7D6215"/>
<path d="M48.5695 114.65H24.4006C22.8421 114.65 21.6388 113.405 21.7124 111.869L21.7441 111.21C21.8182 109.673 23.1411 108.428 24.6996 108.428H48.8685C50.4269 108.428 51.6303 109.673 51.5567 111.21L51.525 111.869C51.4514 113.405 50.1279 114.65 48.5695 114.65Z" fill="#7D6215"/>
<path d="M48.0409 125.655H23.8721C22.3136 125.655 21.1102 124.41 21.1843 122.873L21.216 122.214C21.2896 120.678 22.613 119.433 24.1715 119.433H48.3404C49.8989 119.433 51.1022 120.678 51.0286 122.214L50.9969 122.873C50.9233 124.41 49.5999 125.655 48.0414 125.655H48.0409Z" fill="white"/>
<path d="M21.0615 88.2841C20.9722 90.1398 19.3737 91.6444 17.4914 91.6444C15.6091 91.6444 14.155 90.1398 14.2443 88.2841C14.3335 86.428 15.932 84.9238 17.8143 84.9238C19.6966 84.9238 21.1507 86.4285 21.0615 88.2841Z" fill="#7D6215"/>
<path d="M17.8014 110.986C17.7122 112.842 16.1137 114.346 14.2314 114.346C12.3491 114.346 10.895 112.842 10.9842 110.986C11.0735 109.13 12.672 107.626 14.5543 107.626C16.4366 107.626 17.8907 109.13 17.8014 110.986Z" fill="#7D6215"/>
<path d="M17.2384 122.705C17.1492 124.561 15.5507 126.065 13.6683 126.065C11.786 126.065 10.332 124.561 10.4212 122.705C10.5104 120.849 12.1089 119.345 13.9913 119.345C15.8736 119.345 17.3276 120.849 17.2384 122.705Z" fill="#7D6215"/>
<path d="M349.757 189.162H267.728C264.766 189.162 262.448 186.609 262.735 183.66L268.008 129.427C268.258 126.857 270.419 124.896 273.001 124.896H355.03C357.992 124.896 360.31 127.449 360.023 130.398L354.75 184.631C354.5 187.202 352.339 189.162 349.757 189.162Z" fill="#7D6215"/>
<path d="M322.316 142.838H285.861C284.302 142.838 283.099 141.593 283.172 140.056L283.204 139.397C283.278 137.861 284.601 136.615 286.16 136.615H322.615C324.173 136.615 325.376 137.861 325.302 139.397L325.271 140.056C325.197 141.593 323.874 142.838 322.315 142.838H322.316Z" fill="white"/>
<path d="M309.463 154.627H285.294C283.736 154.627 282.532 153.382 282.606 151.845L282.638 151.186C282.711 149.65 284.035 148.404 285.593 148.404H309.762C311.321 148.404 312.524 149.65 312.45 151.186L312.418 151.845C312.345 153.382 311.022 154.627 309.463 154.627Z" fill="#FBD15B"/>
<path d="M307.982 165.844H283.813C282.255 165.844 281.051 164.599 281.125 163.062L281.157 162.403C281.23 160.867 282.554 159.621 284.112 159.621H308.281C309.839 159.621 311.043 160.867 310.969 162.403L310.937 163.062C310.864 164.599 309.54 165.844 307.982 165.844Z" fill="#FBD15B"/>
<path d="M307.453 176.848H283.284C281.726 176.848 280.522 175.603 280.596 174.067L280.628 173.408C280.701 171.871 282.025 170.626 283.583 170.626H307.752C309.31 170.626 310.514 171.871 310.44 173.408L310.408 174.067C310.335 175.603 309.011 176.848 307.453 176.848Z" fill="#FBD15B"/>
<path d="M280.474 139.477C280.385 141.333 278.786 142.837 276.904 142.837C275.022 142.837 273.567 141.333 273.657 139.477C273.746 137.621 275.344 136.117 277.227 136.117C279.109 136.117 280.563 137.621 280.474 139.477Z" fill="#FBD15B"/>
<path d="M277.213 162.179C277.124 164.035 275.526 165.54 273.643 165.54C271.761 165.54 270.307 164.035 270.396 162.179C270.485 160.323 272.084 158.819 273.966 158.819C275.849 158.819 277.303 160.324 277.213 162.179Z" fill="#FBD15B"/>
<path d="M276.65 173.898C276.561 175.754 274.963 177.259 273.08 177.259C271.198 177.259 269.744 175.754 269.833 173.898C269.922 172.042 271.521 170.538 273.403 170.538C275.285 170.538 276.74 172.043 276.65 173.898Z" fill="#FBD15B"/>
<path d="M328.087 72.8392H250.685C248.314 72.8392 246.46 70.7959 246.689 68.4361L250.909 25.0365C251.109 22.9793 252.838 21.4103 254.905 21.4103H332.307C334.677 21.4103 336.532 23.4536 336.302 25.8134L332.082 69.213C331.882 71.2701 330.153 72.8392 328.087 72.8392Z" fill="#FBD15B"/>
<path d="M321.058 32.2736H274.974C273.005 32.2736 271.483 31.2773 271.576 30.0477L271.617 29.5201C271.71 28.2905 273.382 27.2941 275.352 27.2941H321.435C323.406 27.2941 324.927 28.291 324.833 29.5201L324.793 30.0477C324.7 31.2773 323.027 32.2736 321.058 32.2736H321.058Z" fill="#7D6215"/>
<path d="M268.165 29.5849C268.052 31.0703 266.032 32.2741 263.652 32.2741C261.272 32.2741 259.434 31.0703 259.547 29.5849C259.66 28.0996 261.681 26.8958 264.06 26.8958C266.44 26.8958 268.278 28.0996 268.165 29.5849Z" fill="#7D6215"/>
<path d="M319.082 42.907H272.998C271.029 42.907 269.507 41.9102 269.6 40.681L269.64 40.1534C269.734 38.9238 271.406 37.9275 273.376 37.9275H319.46C321.429 37.9275 322.951 38.9243 322.858 40.1534L322.818 40.681C322.724 41.9102 321.052 42.907 319.082 42.907Z" fill="#7D6215"/>
<path d="M266.189 40.2178C266.076 41.7032 264.056 42.907 261.676 42.907C259.296 42.907 257.458 41.7032 257.571 40.2178C257.684 38.7325 259.704 37.5287 262.084 37.5287C264.464 37.5287 266.302 38.7325 266.189 40.2178Z" fill="#7D6215"/>
<path d="M317.663 54.0229H271.579C269.61 54.0229 268.088 53.0261 268.181 51.797L268.221 51.2693C268.315 50.0398 269.987 49.0434 271.957 49.0434H318.041C320.01 49.0434 321.532 50.0402 321.439 51.2693L321.399 51.797C321.305 53.0265 319.633 54.0229 317.663 54.0229Z" fill="#7D6215"/>
<path d="M264.77 51.3337C264.657 52.8191 262.636 54.0229 260.257 54.0229C257.877 54.0229 256.039 52.8191 256.152 51.3337C256.264 49.8484 258.285 48.6446 260.665 48.6446C263.044 48.6446 264.883 49.8484 264.77 51.3337Z" fill="#7D6215"/>
<path d="M314.946 65.907H268.863C266.892 65.907 265.371 64.9102 265.465 63.681L265.505 63.1534C265.598 61.9238 267.27 60.9275 269.24 60.9275H315.324C317.294 60.9275 318.815 61.9238 318.722 63.1534L318.682 63.681C318.589 64.9106 316.916 65.907 314.946 65.907Z" fill="#7D6215"/>
<path d="M262.053 63.2178C261.94 64.7032 259.92 65.907 257.54 65.907C255.161 65.907 253.322 64.7032 253.435 63.2178C253.548 61.7325 255.569 60.5287 257.948 60.5287C260.328 60.5287 262.166 61.7325 262.053 63.2178Z" fill="#7D6215"/>
<path d="M81.4162 222.576H4.01479C1.64395 222.576 -0.210306 220.532 0.019234 218.173L4.23927 174.773C4.43937 172.716 6.16805 171.147 8.23483 171.147H85.6367C88.0076 171.147 89.8618 173.19 89.6323 175.55L85.4123 218.949C85.2122 221.007 83.4835 222.576 81.4167 222.576H81.4162Z" fill="#7D6215"/>
<path d="M74.3879 182.011H28.3046C26.3344 182.011 24.8132 181.014 24.9066 179.785L24.9466 179.257C25.04 178.028 26.7126 177.031 28.6823 177.031H74.766C76.7357 177.031 78.2574 178.028 78.164 179.257L78.124 179.785C78.0306 181.014 76.3581 182.011 74.3883 182.011H74.3879Z" fill="#FBD15B"/>
<path d="M21.4948 179.321C21.3821 180.807 19.3613 182.01 16.9817 182.01C14.6021 182.01 12.764 180.807 12.8767 179.321C12.9894 177.836 15.0102 176.632 17.3897 176.632C19.7693 176.632 21.6075 177.836 21.4948 179.321Z" fill="#FBD15B"/>
<path d="M72.4117 192.643H26.328C24.3583 192.643 22.8366 191.647 22.93 190.417L22.97 189.89C23.0634 188.66 24.7359 187.664 26.7061 187.664H72.7894C74.7596 187.664 76.2808 188.661 76.1874 189.89L76.1474 190.417C76.054 191.647 74.3814 192.643 72.4117 192.643Z" fill="#FBD15B"/>
<path d="M19.5186 189.954C19.4059 191.44 17.3852 192.643 15.0056 192.643C12.626 192.643 10.7878 191.44 10.9005 189.954C11.0132 188.469 13.034 187.265 15.4136 187.265C17.7932 187.265 19.6313 188.469 19.5186 189.954Z" fill="#FBD15B"/>
<path d="M70.9927 203.759H24.9089C22.9392 203.759 21.4175 202.763 21.5109 201.533L21.5509 201.006C21.6443 199.776 23.3169 198.78 25.2866 198.78H71.3703C73.34 198.78 74.8617 199.776 74.7683 201.006L74.7283 201.533C74.6349 202.763 72.9624 203.759 70.9927 203.759Z" fill="#FBD15B"/>
<path d="M18.1 201.071C17.9873 202.556 15.9665 203.76 13.5869 203.76C11.2074 203.76 9.36921 202.556 9.48191 201.071C9.59461 199.585 11.6154 198.381 13.995 198.381C16.3745 198.381 18.2127 199.585 18.1 201.071Z" fill="#FBD15B"/>
<path d="M68.2759 215.643H22.1921C20.2224 215.643 18.7007 214.647 18.7941 213.417L18.8341 212.89C18.9275 211.66 20.6001 210.664 22.5698 210.664H68.6535C70.6232 210.664 72.1449 211.661 72.0515 212.89L72.0115 213.417C71.9181 214.647 70.2456 215.643 68.2759 215.643Z" fill="#FBD15B"/>
<path d="M15.3828 212.954C15.2701 214.44 13.2493 215.643 10.8697 215.643C8.49014 215.643 6.65198 214.44 6.76468 212.954C6.87738 211.469 8.89816 210.265 11.2777 210.265C13.6573 210.265 15.4955 211.469 15.3828 212.954Z" fill="#FBD15B"/>
<path d="M171.804 189.166C164.488 192.746 154.895 190.868 149.469 184.794C153.26 183.301 155.656 178.904 154.855 174.91C148.566 175.943 141.348 174.495 136.167 170.782C137.281 171.58 142.097 162.638 142.514 161.633C144.111 157.783 144.514 153.432 143.581 149.365C134.906 141.372 131.729 128.046 136.581 117.294C137.992 114.166 140.035 111.241 142.869 109.305C145.702 107.37 149.397 106.53 152.659 107.596C150.25 97.3963 154.072 86.2201 162.77 80.3721C171.467 74.5242 183.786 74.6902 192.322 80.7696C199.743 73.6037 210.981 70.6473 220.968 73.2339C233.666 76.5224 243.196 88.2483 245.814 101.102C248.432 113.954 244.832 127.543 237.963 138.717C234.3 144.676 229.129 150.432 222.236 151.62" fill="#10092D"/>
<path d="M239.481 223.991L228.172 236.421L200.008 243.783L168.374 236.751L155.399 215.651L154.913 204.038L168.374 194.006L167.808 176.314L167.798 175.984L167.505 166.733L210.119 186.88L215.266 189.314L215.58 202.132L222.109 205.373L233.261 210.907L239.481 223.991Z" fill="#F9BAA7"/>
<path d="M222.109 205.373C220.251 207.808 217.763 209.76 214.878 210.766C210.203 212.389 205.019 211.415 200.349 209.766C185.16 204.388 172.772 191.65 167.808 176.314C167.766 176.199 167.73 176.078 167.693 175.958L167.798 175.984L210.119 186.88L215.266 189.315L215.58 202.132L222.109 205.373Z" fill="#F69C8D"/>
<path d="M245.181 218.888C245.181 218.888 272.065 236.464 280.059 293.804L236.939 309.561L245.181 218.888Z" fill="#C9495A"/>
<path d="M262.341 362.866C253.514 364.259 244.921 365.238 236.937 365.945C205.203 368.752 173.039 368.992 141.749 364.73C131.173 363.825 119.267 362.243 108.852 359.495C103.643 358.123 98.8052 356.453 94.7001 354.432C87.0922 352.065 79.5841 349.348 72.1965 346.243L79.5579 318.734L83.9872 302.173L85.2959 297.283L87.6364 288.549L91.2961 274.879L105.868 220.421C106.841 219.557 107.826 218.719 108.815 217.913C135.68 195.928 168.373 194.006 168.373 194.006C168.703 196.122 167.059 197.148 165.791 198.18C164.53 199.206 155.168 208.468 171.901 221.861C188.63 235.249 216.469 229.213 221.108 222.971C225.752 216.725 221.171 209.008 217.72 207.704C214.265 206.4 215.579 202.133 215.579 202.133C231.637 205.18 245.182 218.887 245.182 218.887L245.188 218.892C246.711 223.332 248.177 231.249 249.502 240.49C252.178 259.156 254.287 283.21 255.23 294.807C255.575 299.084 255.765 301.666 255.765 301.666L255.869 302.645L256.707 310.431L261.89 358.652L262.01 359.809L262.34 362.867L262.341 362.866Z" fill="#F66C6C"/>
<path d="M75.4454 298.082C74.6317 302.254 133.492 313.733 134.306 309.561L127.554 285.551L101.871 277.422L75.4454 298.082Z" fill="#10092D"/>
<path d="M175.589 336.368L172.013 358.651L171.824 359.808L170.84 365.94C170.84 365.94 157.834 366.113 141.749 364.73C131.173 363.825 119.267 362.243 108.853 359.495C103.643 358.123 98.8052 356.453 94.7001 354.432C88.4014 351.338 83.8147 347.41 82.2176 342.426C80.0027 335.52 79.3536 327.174 79.5579 318.734C79.7041 312.786 80.275 306.796 81.0239 301.236C81.1968 299.958 81.3799 298.702 81.5685 297.477C81.8247 295.817 82.092 294.209 82.3643 292.67C84.202 282.261 86.2545 274.874 86.2545 274.874C87.9929 274.816 89.6733 274.821 91.2966 274.879C104.459 275.308 113.978 279.14 120.528 283.324C124.188 285.664 126.921 288.115 128.848 290.146C131.398 292.832 132.534 294.79 132.534 294.79C132.592 294.811 132.152 296.764 131.492 299.549C131.015 301.565 130.424 304.021 129.822 306.492C129.497 307.822 129.172 309.157 128.863 310.429C127.743 315 126.806 318.791 126.806 318.791C126.398 321.691 126.115 323.67 126.115 323.67C126.115 323.67 138.209 332.943 162.274 335.64H162.279C164.787 335.922 167.42 336.132 170.185 336.252C171.933 336.325 173.735 336.367 175.588 336.367L175.589 336.368Z" fill="#F9BAA7"/>
<path d="M126.805 318.791C126.397 321.692 126.114 323.671 126.114 323.671C126.114 323.671 114.957 320.666 98.4744 326.577C106.836 320.718 116.841 317.885 126.805 318.791Z" fill="#F69C8D"/>
<path d="M75.4459 298.083C75.4459 298.083 112.368 292.496 134.307 309.562C134.307 309.562 142.502 263.865 145.165 240.176C147.828 216.486 118.625 205.771 103.578 222.28C93.2608 233.6 79.7359 273.887 75.4464 298.082L75.4459 298.083Z" fill="#C9495A"/>
<path d="M359.79 250.39L338.386 335.598C322.956 346.761 303.521 353.96 283.85 358.651C282.154 359.06 280.463 359.442 278.766 359.808H156.191V359.803L156.484 358.651L159.95 344.918L162.28 335.64L173.118 292.497L175.762 281.973L177.029 276.973L184.762 246.15C185.6 242.804 188.328 240.49 191.412 240.49H353.141C353.979 240.49 354.79 240.673 355.492 240.945C358.791 242.317 360.817 246.338 359.791 250.391L359.79 250.39Z" fill="#FBD15B"/>
<path d="M156.192 359.805H164.256L168.01 344.914L183.824 281.971L185.09 276.974L192.825 246.152C193.662 242.804 196.392 240.489 199.473 240.489H191.41C188.328 240.489 185.599 242.805 184.762 246.152L177.027 276.974L175.76 281.971L159.946 344.914L156.192 359.805Z" fill="#7D6215"/>
<path d="M283.85 358.651C282.153 359.06 280.462 359.442 278.766 359.808C273.258 361.008 267.755 362.013 262.341 362.866C253.514 364.259 244.921 365.238 236.937 365.945C205.203 368.751 173.039 368.992 141.749 364.73C131.173 363.824 119.267 362.243 108.852 359.494C109.449 359.237 110.104 359.033 110.795 358.892C111.549 358.735 112.355 358.651 113.188 358.651H283.849L283.85 358.651Z" fill="#7D6215"/>
<path d="M266.188 312.253C275.285 312.253 282.66 307.78 282.66 302.263C282.66 296.746 275.285 292.273 266.188 292.273C257.091 292.273 249.716 296.746 249.716 302.263C249.716 307.78 257.091 312.253 266.188 312.253Z" fill="white"/>
<path d="M221.178 197.099C227.143 192.263 229.426 181.92 230.316 173.258C231.372 162.987 231.569 152.628 230.909 142.325C230.625 137.888 230.734 133.478 229.531 129.186C228.952 127.118 228.199 125.097 227.23 123.179C226.981 122.688 224.072 118.375 224.118 118.305C220.878 123.211 214.772 126.061 208.931 125.394C205.521 125.005 202.343 123.539 199.084 122.459C195.825 121.379 192.1 121.058 188.87 122.223C190.41 123.645 191.467 125.581 191.829 127.646C191.971 128.456 191.862 129.519 191.08 129.775C190.412 129.993 189.76 129.45 189.247 128.97C184.871 124.877 179.088 122.205 173.102 121.932C173.828 126.341 172.673 130.809 171.865 135.203C170.143 144.558 170.042 154.314 171.454 163.721C168.033 161.525 166.12 158.507 164.529 154.894C163.241 151.967 159.958 149 156.606 148.738C152.707 148.433 149.238 151.947 148.595 155.804C147.951 159.661 149.567 163.589 151.889 166.736C153.531 168.961 155.634 170.977 158.265 171.831C160.896 172.685 164.113 172.127 165.833 169.961C165.833 169.961 172.464 200.018 203.425 201.357C203.425 201.357 213.696 203.163 221.178 197.099L221.178 197.099Z" fill="#F9BAA7"/>
<path d="M210.296 170.986C213.702 172.572 217.873 172.305 221.111 170.427C222.024 169.897 222.206 168.643 221.492 167.865C217.374 163.373 215.142 157.176 215.526 151.087C214.366 156.609 215.474 162.547 218.918 167.044C219.229 167.451 219.436 167.941 219.42 168.453C219.379 169.804 218.085 170.075 217.013 170.197C214.463 170.486 212.846 170.697 210.296 170.986Z" fill="#F69C8D"/>
<path d="M194.9 172.741C203.84 172.741 211.087 165.494 211.087 156.554C211.087 147.615 203.84 140.368 194.9 140.368C185.961 140.368 178.714 147.615 178.714 156.554C178.714 165.494 185.961 172.741 194.9 172.741Z" stroke="black" stroke-width="6.253" stroke-linecap="round" stroke-linejoin="round"/>
<path d="M228.63 166.731C235.942 166.731 241.868 160.043 241.868 151.794C241.868 143.544 235.942 136.856 228.63 136.856C221.319 136.856 215.393 143.544 215.393 151.794C215.393 160.043 221.319 166.731 228.63 166.731Z" stroke="black" stroke-width="6.253" stroke-linecap="round" stroke-linejoin="round"/>
<path d="M180.103 141.185C180.936 139.575 182.748 136.943 184.32 136.039C185.89 135.136 187.642 134.585 189.412 134.194C193.72 133.239 198.227 133.192 202.554 134.056C202.812 134.631 202.964 135.094 203.032 135.721C203.1 136.348 202.946 137.033 202.481 137.46C201.783 138.101 200.698 137.957 199.76 137.814C193.074 136.795 186.068 137.996 180.103 141.185L180.103 141.185Z" fill="#10092D"/>
<path d="M240.623 134.441C239.4 133.103 236.965 131.034 235.213 130.571C233.461 130.107 231.626 130.032 229.815 130.114C225.407 130.314 221.044 131.442 217.09 133.403C216.992 134.026 216.965 134.512 217.062 135.135C217.159 135.758 217.487 136.379 218.047 136.67C218.888 137.108 219.898 136.686 220.766 136.304C226.957 133.579 234.034 132.915 240.624 134.44L240.623 134.441Z" fill="#10092D"/>
<path d="M197.707 157.332C199.645 157.332 201.217 155.292 201.217 152.775C201.217 150.258 199.645 148.217 197.707 148.217C195.769 148.217 194.197 150.258 194.197 152.775C194.197 155.292 195.769 157.332 197.707 157.332Z" fill="#10092D"/>
<path d="M200.007 151.731C200.007 152.433 199.631 153.003 199.167 153.003C198.702 153.003 198.326 152.433 198.326 151.731C198.326 151.028 198.702 150.458 199.167 150.458C199.631 150.458 200.007 151.028 200.007 151.731Z" fill="#FEFEFE"/>
<path d="M227.007 149.377C227.007 150.08 226.631 150.65 226.167 150.65C225.703 150.65 225.326 150.08 225.326 149.377C225.326 148.674 225.703 148.105 226.167 148.105C226.631 148.105 227.007 148.674 227.007 149.377Z" fill="#FEFEFE"/>
<path d="M224.66 153.749C226.598 153.749 228.17 151.709 228.17 149.191C228.17 146.674 226.598 144.634 224.66 144.634C222.721 144.634 221.15 146.674 221.15 149.191C221.15 151.709 222.721 153.749 224.66 153.749Z" fill="#10092D"/>
<path d="M226.96 148.148C226.96 148.851 226.584 149.42 226.12 149.42C225.656 149.42 225.279 148.851 225.279 148.148C225.279 147.445 225.656 146.875 226.12 146.875C226.584 146.875 226.96 147.445 226.96 148.148Z" fill="#FEFEFE"/>
<path d="M210.238 150.421C210.644 149.514 211.481 148.812 212.445 148.569C213.409 148.326 214.479 148.548 215.267 149.154" stroke="black" stroke-width="6.253" stroke-linecap="round" stroke-linejoin="round"/>
<path d="M220.547 179.702C214.614 182.603 207.413 182.78 201.345 180.172C203.847 183.374 207.843 185.194 211.892 184.846C215.941 184.499 219.742 181.996 221.661 178.414" fill="#F69C8D"/>
<path d="M178.714 151.794H162.4" stroke="black" stroke-width="6.253" stroke-linecap="round" stroke-linejoin="round"/>
<path d="M155.221 154.703C156.439 154.858 157.333 156.015 157.584 157.217C157.835 158.419 157.582 159.662 157.329 160.864C157.228 159.721 158.733 158.96 159.794 159.398C160.855 159.837 161.43 161 161.667 162.122C161.875 163.104 161.879 164.186 161.363 165.046C160.846 165.905 159.686 166.426 158.789 165.976C159.927 165.468 160.365 163.829 159.63 162.821C158.897 161.813 157.202 161.726 156.369 162.654C155.956 161.758 156.034 160.724 156.064 159.738C156.094 158.752 156.04 157.686 155.431 156.909C154.911 156.246 153.939 156.174 153.209 156.047C153.435 155.21 154.319 154.589 155.221 154.704V154.703Z" fill="#F69C8D"/>
<path d="M133.585 36.9275L147.731 43.3389L146.684 19.1448L161.679 12.001" stroke="#B2C0F9" stroke-width="1.563" stroke-linecap="round" stroke-linejoin="round"/>
<path d="M163.266 20.3946C165.024 20.3946 166.45 18.9694 166.45 17.2114C166.45 15.4534 165.024 14.0282 163.266 14.0282C161.508 14.0282 160.083 15.4534 160.083 17.2114C160.083 18.9694 161.508 20.3946 163.266 20.3946Z" fill="#7D6215"/>
<path d="M63.6437 121.3C73.0502 111.631 82.4563 101.963 91.8628 92.2944" stroke="white" stroke-width="1.563" stroke-linecap="round" stroke-linejoin="round"/>
<path d="M91.8629 96.3392C94.097 96.3392 95.9081 94.5281 95.9081 92.294C95.9081 90.0598 94.097 88.2487 91.8629 88.2487C89.6287 88.2487 87.8176 90.0598 87.8176 92.294C87.8176 94.5281 89.6287 96.3392 91.8629 96.3392Z" fill="#7D6215"/>
<path d="M122.843 218.009C122.843 218.009 137.523 205.811 162.4 201.609" stroke="#C9495A" stroke-width="1.563" stroke-linecap="round" stroke-linejoin="round"/>
<path d="M219.789 209.139C219.789 209.139 241.598 217.811 251.494 232.458" stroke="#C9495A" stroke-width="1.563" stroke-linecap="round" stroke-linejoin="round"/>
<path d="M154.913 203.173C154.913 203.173 153.186 230.76 189.871 235.625C226.556 240.489 231.209 221.427 230.238 214.318" stroke="#C9495A" stroke-width="1.563" stroke-linecap="round" stroke-linejoin="round"/>
</svg>
