<svg width="320" height="420" viewBox="0 0 320 420" fill="none" xmlns="http://www.w3.org/2000/svg">
<path d="M248.173 414.73L275.364 218.728C275.416 218.084 276.346 218.051 276.443 218.691L306.087 414.73" stroke="black" stroke-width="2" stroke-miterlimit="10" stroke-linecap="round" stroke-linejoin="round"/>
<path d="M102.204 413.246L133.001 285.37L179.866 413.246" stroke="black" stroke-width="2" stroke-miterlimit="10" stroke-linecap="round" stroke-linejoin="round"/>
<path d="M33.8956 231.298C33.5932 230.463 33.268 229.639 32.993 228.787C33.268 229.639 33.5704 230.475 33.8956 231.298Z" fill="#7D6215"/>
<path d="M43.5545 162.536C47.1267 170.97 51.1045 179.218 55.0231 187.491C59.1741 196.256 63.4027 204.873 68.6462 213.048C79.4477 229.89 93.1119 244.796 108.27 257.764C124.602 271.738 143.379 282.547 162.602 291.952C162.76 292.03 162.922 292.101 163.08 292.179C159.09 292.332 155.097 292.355 151.116 292.226C143.151 291.966 135.241 290.975 127.398 289.55C134.372 291.38 141.437 292.75 148.832 292.992C160.955 293.387 173.185 292.498 185.093 290.152C196.906 287.824 208.806 284.053 218.885 277.27C223.449 274.198 227.626 270.437 230.824 265.926C232.543 263.501 233.938 260.889 235.016 258.15C234.943 257.854 234.898 257.553 234.817 257.258C228.995 235.901 210.437 233.119 193.817 223.635C176.286 213.629 161.285 199.127 150.813 181.799C141.1 165.728 135.394 147.719 127.63 130.704C120.385 114.829 110.98 106.643 94.3897 100.811C82.0824 96.4853 68.4882 93.5194 56.1322 97.7009C45.1165 101.43 36.9739 110.304 31.7532 120.925C32.6284 135.293 38.0816 149.612 43.5545 162.536Z" fill="#7D6215"/>
<path d="M218.32 199.079C218.408 190.721 218.168 183.119 220.321 174.799C223.171 163.782 231.624 157.765 242.165 154.369C244.481 153.623 247.029 153.088 249.31 153.938C251.946 154.918 253.628 157.531 254.653 160.161C257.969 168.67 256.243 178.219 254.473 187.182C250.51 207.251 246.546 227.319 242.583 247.388C242.355 248.544 242.024 249.846 240.991 250.402C240.198 250.829 239.233 250.674 238.352 250.498C229.448 248.714 220.757 245.861 212.521 242.02C215.98 243.633 218.3 200.951 218.32 199.079Z" fill="#F9BAA7"/>
<path d="M239.933 317.597C246.524 315.731 249.823 315.14 256.194 312.61C256.205 341.762 260.278 390.917 260.145 399.307C251.961 400.237 245.558 403.273 237.28 403.364C230.789 393.258 228.143 364.657 224.475 353.601C223.627 351.046 219.929 338.282 215.797 323.755C223.899 321.93 231.943 319.86 239.933 317.597Z" fill="#F9BAA7"/>
<path d="M224.794 259.113C234.226 261.298 243.908 262.301 253.473 263.718C258.511 264.466 268.813 267.347 273.566 263.806C279.576 259.332 269.731 256.717 265.276 254.213C257.604 249.902 249.823 245.794 242.089 241.6C234.947 237.726 225.774 229.468 218.487 237.457C213.801 242.595 213.264 250.794 212.731 257.384C216.82 257.528 220.778 258.183 224.794 259.113Z" fill="black"/>
<path d="M72.2047 224.928C76.5669 211.083 96.3103 207.909 108.499 208.892C133.86 210.935 159.298 211.56 184.52 213.634C205.066 215.323 227.428 219.791 241.556 236.258C253.102 249.716 254.965 268.236 258.233 285.101C264.286 316.33 265.979 345.609 265.274 377.249C265.257 377.994 265.224 378.79 264.785 379.389C264.211 380.171 263.145 380.36 262.188 380.489C250.129 382.112 238.067 383.734 226.008 385.357C225.292 385.453 224.514 385.536 223.896 385.163C223.22 384.752 222.945 383.92 222.724 383.157C220.842 376.643 195.966 276.986 197.721 276.705C176.894 280.026 160.425 279.063 139.406 277.366C124.552 276.167 109.438 273.587 96.4774 266.192C83.9513 259.042 67.1587 240.945 72.2047 224.928Z" fill="#1C1C1B"/>
<path d="M66.1574 219.511C67.654 221.767 67.5385 223.82 68.2861 225.048C72.1013 224.996 75.9257 225.055 79.741 225.115C89.7387 225.268 99.8277 225.411 109.664 223.334C118.219 221.527 126.726 218.908 134.967 215.998C147.691 211.505 159.623 208.337 158.687 192.672C157.511 172.482 155.083 147.044 160.752 127.352C163.04 119.404 164.281 113.48 167.708 105.956C168.65 103.888 169.595 101.758 169.729 99.4875C169.824 97.8663 169.501 96.2496 169.113 94.671C162.783 68.8317 141.293 68.5188 118.492 66.4918C114.961 66.1773 111.383 65.8658 107.89 66.466C103.581 67.2075 98.5514 68.4853 94.803 70.7447C74.8196 82.7967 73.4673 103.044 67.4504 123.961C64.4465 134.408 59.7378 144.298 56.7233 154.744C50.2901 177.049 53.2727 200.084 66.1574 219.511Z" fill="#FBD15B"/>
<path d="M265.754 399.006C268.207 400.384 271.876 401.208 274.505 402.004C281.299 404.061 288.34 405.222 295.043 407.598C298.557 408.846 301.913 413.263 298.09 416.394C296.425 417.759 294.175 418.103 292.04 418.351C275.036 420.326 257.847 419.365 240.757 418.401C239.827 418.35 238.807 418.258 238.146 417.599C237.771 417.224 237.566 416.715 237.376 416.216C235.297 410.743 233.868 404.628 232.556 399.035C234.848 398.473 237.271 399.433 239.573 399.609C242.56 399.835 245.826 400.074 248.548 398.565C252.227 396.528 255.608 393.948 258.549 390.935C258.824 390.654 259.105 390.362 259.467 390.215C260.657 389.73 261.823 391.024 262.226 392.251C263.01 394.639 263.051 397.313 265.3 398.738C265.449 398.83 265.599 398.919 265.754 399.006Z" fill="black"/>
<path d="M217.598 193.538C217.394 190.7 217.611 188.067 220.249 187.068C223.888 185.692 225.117 187.638 227.444 183.847C231.924 176.543 235.106 167.418 238.139 159.412C241.793 149.764 248.684 137.174 248.322 126.807C248.304 126.267 248.258 125.698 247.944 125.262C247.577 124.754 246.935 124.546 246.331 124.386C240.959 122.973 235.313 123.118 229.771 123.476C193.232 125.837 172.833 165.663 155.549 192.938C152.943 197.051 137.76 216.847 133.773 216.53C147.738 217.641 158.491 224.751 171.407 228.675C179.336 231.081 188.056 238.189 195.474 239.209C197.871 239.538 207.653 221.463 209.08 219.096C212.821 212.891 218.101 205.816 217.985 198.294C217.962 196.815 217.712 195.144 217.598 193.538Z" fill="#1C1C1B"/>
<path d="M261.153 196.996C260.325 203.173 259.379 209.121 257.841 215.155C257.707 215.68 257.562 216.227 257.197 216.629C256.618 217.265 255.656 217.358 254.798 217.309C252.987 217.208 251.232 216.676 249.451 216.332C238.359 214.198 219.912 221.696 211.376 211.302C209.66 209.214 209.115 206.415 208.755 203.732C206.147 184.342 212.312 165.398 212.049 145.918C211.909 135.513 215.753 129.235 221.013 120.746C226.059 112.602 233.158 109.835 242.259 112.939C257.595 118.169 266.367 134.503 265.648 150.026C264.922 165.689 263.246 181.399 261.153 196.996Z" fill="#1C1C1B"/>
<path d="M118.419 46.3916C118.27 48.2696 122.181 52.5619 123.377 53.9157C125.273 56.0627 127.483 57.7234 130.148 58.7794C137.093 61.5326 144.371 61.7863 149.815 56.0308C152.4 53.2989 154.156 49.8862 155.627 46.4189C157.868 41.1359 160.996 26.5677 159.577 21.0036C158.289 15.9546 152.902 20.3548 147.999 18.6607C143.733 17.1853 140.486 15.8649 135.921 16.6626C131.865 17.3722 127.954 19.3991 125.404 22.7084C124.717 23.6018 124.096 24.5044 123.526 25.4084C122.177 28.2892 120.934 31.2248 120.036 34.2818C119.287 36.8314 119.033 39.4174 118.629 41.9989C118.6 43.4667 118.535 44.9329 118.419 46.3916Z" fill="#F9BAA7"/>
<path d="M115.529 79.9676C119.565 82.8104 124.553 84.6899 129.461 85.088C130.404 85.1655 142.391 83.8193 140.674 81.5417C136.177 75.5734 138.634 70.2585 141.454 63.7721C141.887 62.7769 145.664 56.6506 145.273 55.9608C145.163 55.7648 145.026 55.5824 144.853 55.4153C143.949 54.5462 142.548 54.569 141.297 54.5553C136.617 54.5022 132.238 53.0192 128.437 50.2934C126.629 48.9973 124.998 47.4688 123.445 45.8764C122.557 44.9648 120.925 41.7907 119.566 41.6783C119.437 41.6676 119.339 41.7345 119.232 41.7816C117.637 48.2148 116.854 53.8412 113.65 59.9949C111.169 64.7582 105.042 67.1163 103.306 67.4354C106.047 72.3249 110.913 76.716 115.529 79.9676Z" fill="#F9BAA7"/>
<path d="M128.985 36.7235C129.108 35.7343 129.228 34.5279 130.134 34.1207C131.055 33.7059 132.048 34.4565 133.035 34.6783C136.186 35.3864 139.091 31.9495 140.893 29.7691C141.259 29.3269 141.619 28.9167 141.982 28.5399C144.043 26.4036 146.164 25.3673 149.668 25.656C153.127 25.9417 156.592 27.142 159.998 26.4735C163.775 25.732 166.927 22.561 167.811 18.7959C169.244 12.6984 164.266 4.58017 157.401 5.72581C155.549 6.03425 153.545 6.97629 151.918 6.03729C151.003 5.51006 150.485 4.51332 149.856 3.66093C147.439 0.386584 142.703 -0.912513 138.966 0.675279C137.982 1.09312 137.069 1.68568 136.048 2.00324C134.092 2.60949 131.992 2.14606 129.95 2.03514C127.534 1.90447 125.009 2.31777 123.019 3.70044C121.028 5.08311 119.694 7.56888 120.126 9.96196C120.252 10.6655 120.524 11.3629 120.432 12.0724C120.115 14.5673 116.166 14.6645 114.985 16.8829C113.855 19.0101 115.92 21.6265 115.336 23.9664C114.988 25.3582 113.739 26.44 113.595 27.8683C113.417 29.6369 115.034 30.8752 115.73 32.3491C116.5 33.9779 117.222 36.1112 117.38 37.898C117.705 41.5795 115.488 45.5391 120.905 45.0772C125.36 44.6943 128.438 41.1283 128.985 36.7235Z" fill="#1D1D1B"/>
<path d="M197.432 131.737C199.57 134.314 201.32 136.969 207.471 136.562C215.282 136.043 222.884 132.055 227.345 125.511C228.585 123.692 229.604 121.667 229.899 119.483C231.674 106.333 216.949 97.8119 207.551 92.4909C196.78 86.3934 185.129 82.1056 173.387 78.3284C162.972 74.9765 152.09 69.1572 140.875 70.0582C140.583 70.081 140.279 70.1357 139.987 70.2131C140.107 71.6718 140.182 73.135 140.194 74.5967C145.319 82.6997 148.502 92.3085 150.572 101.651C151.91 107.691 154.896 114.661 154.288 120.892C166.691 122.606 179.023 124.85 191.234 127.621C194.415 128.34 196.008 130.022 197.432 131.737Z" fill="#FBD15B"/>
<path d="M216.13 103.901C211.379 104.439 207.396 108.018 205.09 112.228C202.783 116.438 201.872 121.255 200.992 125.98C198.479 139.482 197.66 155.139 193.156 168.083C190.359 176.124 179.474 187.217 184.857 196.392C186.436 199.081 189.771 200.602 192.824 200.024C198.228 199.003 200.747 192.915 203.045 187.893C206.008 181.418 210.405 176.437 214.33 170.751C219.239 163.64 222.794 154.919 226.348 147.064C230.906 136.993 234.943 125.514 231.222 115.103C228.943 108.727 222.855 103.16 216.13 103.901Z" fill="#F9BAA7"/>
<mask id="mask0_78_1187" style="mask-type:luminance" maskUnits="userSpaceOnUse" x="89" y="41" width="67" height="75">
<path d="M155.912 93.0072C155.955 92.796 155.972 92.5818 155.999 92.3676C154.61 87.3505 147.463 87.434 143.446 85.3235C142.634 84.8966 141.943 84.3633 141.343 83.7616C141.264 83.6811 141.183 83.6036 141.107 83.52C139.846 82.1449 139.077 80.3991 138.778 78.4223C137.556 70.3436 141.706 63.0595 145.272 55.9608C145.161 55.7648 145.024 55.5824 144.85 55.4153C143.945 54.5462 142.545 54.569 141.294 54.5553C136.616 54.5022 132.235 53.0192 128.434 50.2934C126.626 48.9973 124.995 47.4688 123.442 45.8764C122.554 44.9648 120.922 41.7907 119.563 41.6783C119.434 41.6676 119.335 41.7345 119.229 41.7816C117.632 48.2148 117.502 54.2302 113.647 59.9933C112.188 62.1737 110.465 64.1125 108.418 65.5361C107.346 66.5694 106.039 67.326 104.242 67.633C103.787 67.7104 103.322 67.7469 102.851 67.7591C102.661 67.7864 102.484 67.8366 102.289 67.8563C102.061 67.8791 101.879 67.8229 101.716 67.7393C98.8188 67.6132 95.8285 66.9249 93.5996 68.6342C92.5496 69.4411 91.8963 70.6581 91.3842 71.8828C87.607 80.9157 90.2614 92.6791 95.0354 100.806C98.6729 106.998 105.059 112.726 112.007 114.671C118.621 116.523 125.524 114.96 131.816 112.658C134.575 111.649 137.198 110.648 139.717 109.484C147.296 105.985 153.835 102.086 155.82 93.4463C155.85 93.3005 155.884 93.1546 155.912 93.0072Z" fill="white"/>
</mask>
<g mask="url(#mask0_78_1187)">
<path d="M130.775 58.0411C130.954 58.1398 131.167 58.228 131.394 58.3115C135.336 59.9404 139.676 60.9401 143.83 60.3308C144.871 60.7776 144.526 61.633 144.002 63.1767C143.268 65.3419 142.605 67.5329 142.019 69.7437C138.184 65.8053 134.35 61.8655 130.515 57.9271C130.602 57.9666 130.689 58.0046 130.775 58.0411Z" fill="#1D1D1B"/>
</g>
<path d="M70.705 85.4831C62.8526 94.507 59.6299 106.674 56.9618 118.07C53.5127 132.799 50.0621 147.529 46.6115 162.258C45.8017 165.716 44.9873 169.202 44.8885 172.754C44.729 178.452 46.3548 185.702 47.6842 191.191C49.3921 198.235 53.5841 197.8 59.8259 197.177C69.6961 196.191 83.1247 193.19 89.7888 185.098C92.9568 181.252 93.9748 176.11 94.8865 171.203C96.1415 164.453 97.3966 157.704 98.6516 150.955C103.78 123.379 108.905 94.9339 103.104 67.4917C89.2798 69.5566 78.7791 76.2071 70.705 85.4831Z" fill="#FBD15B"/>
<path d="M103.377 112.862C91.9662 115.849 92.9903 130.526 91.9556 139.581C90.4285 152.953 87.8911 166.21 84.3706 179.196" stroke="#1D1D1B" stroke-miterlimit="10" stroke-linecap="round" stroke-linejoin="round"/>
<path d="M224.581 145.145C220.216 164.066 210.221 192.803 210.034 212.225" stroke="#1D1D1B" stroke-width="0.5" stroke-miterlimit="10" stroke-linecap="round" stroke-linejoin="round"/>
<path d="M143.09 47.7333C143.772 49.514 145.275 50.8162 146.913 51.0487C148.552 51.2811 150.271 50.4363 151.29 48.8987" fill="white"/>
<path d="M37.4206 208.115C69.02 200.904 95.7997 195.635 124.239 209.085C142.759 217.844 155.258 234.157 158.763 251.516C162.27 268.877 156.631 281.038 141.413 288.687" stroke="#C79F2D" stroke-width="4" stroke-miterlimit="10" stroke-linecap="round" stroke-linejoin="round"/>
<path d="M203.18 279.02C202.315 272.438 202.124 264.282 201.259 257.698" stroke="#1D1D1B" stroke-width="0.5" stroke-miterlimit="10" stroke-linecap="round" stroke-linejoin="round"/>
<path d="M210.481 218.593C190.139 215.483 177.049 218.207 150.86 218.207" stroke="#1D1D1B" stroke-width="0.5" stroke-miterlimit="10" stroke-linecap="round" stroke-linejoin="round"/>
<path d="M122.848 36.0185C122.848 39.3642 125.547 42.0764 128.874 42.0764C132.203 42.0764 134.9 39.3642 134.9 36.0185C134.9 32.6727 132.202 29.9606 128.874 29.9606C125.545 29.9606 122.848 32.6727 122.848 36.0185Z" fill="#F9BAA7"/>
<path d="M164.494 292.768C164.336 292.691 162.762 292.031 162.604 291.954C143.38 282.549 124.603 271.739 108.271 257.765C93.1134 244.797 79.4492 229.892 68.6477 213.049C63.4042 204.873 59.1757 196.258 55.0246 187.492C51.106 179.217 47.1267 170.97 43.556 162.537C38.0831 149.613 32.6284 135.294 31.7547 120.927C28.8359 126.863 26.8181 133.337 25.7469 139.779C21.1112 167.668 24.2807 201.826 32.993 228.79C33.2681 229.642 33.5932 230.466 33.8956 231.302C39.7043 247.347 51.4205 261.675 73.3488 274.173C112.243 296.34 143.086 293.022 151.05 293.282C155.033 293.408 160.504 292.92 164.494 292.768Z" fill="#C79F2D"/>
<path d="M87.0919 167.027C93.2106 168.372 99.2154 170.338 105.222 172.164C114.759 175.065 124.422 176.738 134.11 179.33C136.863 180.067 139.658 180.786 142.507 180.811C147.404 180.858 152.134 178.867 157.031 178.759C163.579 178.614 169.976 182.288 173.535 187.755C179.527 196.961 169.595 194.495 163.344 194.404C158.47 194.333 153.595 194.261 148.721 194.19C129.558 193.909 111.438 194.886 92.2139 196.51C81.7709 197.393 63.5637 199.853 54.274 193.625C49.7598 190.598 42.3192 175.867 46.4627 171.462C47.2391 170.637 48.3118 170.172 49.3617 169.753C58.7624 165.992 68.9394 164.62 79.0375 165.689C81.7512 165.976 84.4329 166.444 87.0919 167.027Z" fill="#F9BAA7"/>
<path d="M30.0818 164.592C30.404 168.521 31.0421 172.452 31.6651 176.261C32.4597 181.124 33.2589 185.994 34.4517 190.776C35.4955 194.965 36.8964 199.187 39.6162 202.53C44.0833 208.021 52.2106 210.153 58.8672 207.944C64.1092 206.204 63.386 204.327 61.1524 199.959C56.5197 190.902 51.7062 181.425 47.7268 172.003C43.6943 162.454 39.9824 153.415 36.6761 143.595C35.9787 141.522 35.2813 139.45 34.6781 137.348C33.7801 134.217 33.0918 131.023 32.6223 127.797C33.0401 130.666 32.1756 134.308 31.893 137.192C31.5724 140.474 31.1834 143.75 30.7261 147.015C29.9086 152.843 29.5971 158.687 30.0818 164.592Z" fill="#C79F2D"/>
<path d="M1.00014 414.73L29.5059 218.728C29.5591 218.084 30.5346 218.051 30.6364 218.691L61.7115 414.73" stroke="black" stroke-width="2" stroke-miterlimit="10" stroke-linecap="round" stroke-linejoin="round"/>
<path d="M294.377 212.546H11.9977V221.246H294.377V212.546Z" fill="#C1AE7C"/>
<path d="M131.707 35.1448C131.346 32.9614 128.373 31.7413 126.597 33.048" stroke="#1C1C1B" stroke-width="0.5" stroke-miterlimit="10" stroke-linecap="round" stroke-linejoin="round"/>
<path d="M225.496 212.937H98.3994C97.1201 212.937 96.0823 211.899 96.0823 210.619V209.234C96.0823 207.954 97.1201 206.917 98.3994 206.917H225.496C226.775 206.917 227.813 207.954 227.813 209.234V210.619C227.813 211.9 226.775 212.937 225.496 212.937Z" fill="black"/>
<path d="M228.225 212.937H115.655L125.451 148.29C125.791 146.046 127.698 144.371 129.912 144.371H233.559C236.235 144.371 238.248 146.781 237.838 149.493L228.225 212.937Z" fill="black"/>
<path d="M180.217 176.455L185.1 180.536" stroke="#FBD15B" stroke-miterlimit="10" stroke-linecap="round" stroke-linejoin="round"/>
<path d="M173.801 176.455L178.682 180.536" stroke="#FBD15B" stroke-miterlimit="10" stroke-linecap="round" stroke-linejoin="round"/>
<path d="M195.398 121.284C195.092 125.512 197.339 130.985 199.242 133.664" stroke="#1D1D1B" stroke-miterlimit="10" stroke-linecap="round" stroke-linejoin="round"/>
<path d="M242.207 241.188C242.378 238.801 242.209 236.388 241.707 234.048" stroke="#1D1D1B" stroke-miterlimit="10" stroke-linecap="round" stroke-linejoin="round"/>
<path d="M308.225 331.937L318.973 266.991C319.286 265.096 317.833 263.371 315.922 263.371H268.452" stroke="#FBD15B" stroke-miterlimit="10" stroke-linecap="round" stroke-linejoin="round"/>
</svg>
