<svg width="425" height="433" viewBox="0 0 425 433" fill="none" xmlns="http://www.w3.org/2000/svg">
<path d="M174.459 306.592C179.043 311.698 184.474 316.438 190.299 320.097C193.705 322.238 197.355 323.947 200.902 325.829C200.983 325.929 201.071 326.021 201.15 326.123C202.288 327.589 203.413 329.345 203.051 331.161C202.622 333.325 200.282 334.55 198.114 335.015C192.367 336.249 183.821 335.565 178.138 334.16C166.273 331.225 154.641 326.097 146.389 316.847C138.006 307.452 134.29 295.123 133.061 282.863C131.772 270 130.954 258.331 136.016 245.964C137.498 242.343 139.405 238.786 142.347 236.194C145.289 233.601 149.432 232.106 153.234 233.099C156.689 234.001 159.4 236.826 160.878 240.059C162.356 243.293 162.748 246.91 162.835 250.461C163.063 259.851 162.773 266.122 163.548 275.555C164.432 286.295 167.342 298.665 174.459 306.592Z" fill="#F9BAA7"/>
<path d="M170.957 210.886C168.833 208.182 165.659 201.269 169.134 198.324C169.662 197.877 170.332 197.639 170.996 197.44C173.126 196.802 175.339 196.467 177.466 195.818C180.727 194.824 184.762 193.331 185.543 189.717C186.208 186.64 185.747 183.45 186.171 180.35C175.056 180.084 171.286 169.344 169.871 160.01C169.114 155.023 169.262 150.486 169.727 145.564C170.261 139.909 169.47 134.403 170.565 128.701C170.708 127.955 170.897 127.158 171.464 126.653C172.036 126.143 172.857 126.05 173.621 125.986C180.637 125.396 187.736 125.171 194.687 126.289C200.605 127.24 210.892 129.312 213.417 135.576C216.476 143.162 216.855 151.503 216.389 159.564C216.018 165.982 214.826 172.322 214.466 178.742C214.224 183.057 214.594 188.088 216.947 191.857C218.016 193.57 219.344 195.031 221.169 195.966C223.496 197.156 225.126 195.929 226.933 198.023C228.543 199.89 229.63 203.017 229.099 205.45C228.549 207.964 226.459 209.817 224.4 211.361C218.745 215.605 212.421 218.956 205.733 221.251C202.81 222.254 199.77 223.063 196.682 223.008C192.58 222.936 188.674 221.353 184.89 219.767C180.744 218.029 176.532 216.209 173.169 213.227C172.369 212.521 171.624 211.735 170.957 210.886Z" fill="#F9BAA7"/>
<path d="M274.223 243.964C272.933 228.125 265.803 211.915 251.299 203.995C242.435 199.153 232.813 197.736 223.129 195.468C222.845 195.401 222.543 195.335 222.267 195.432C221.888 195.564 221.677 195.953 221.493 196.308C216.867 205.201 206.862 211.045 196.8 210.73C186.341 210.403 178.35 204.047 172.853 195.725C165.723 198.09 158.628 200.806 152.394 204.981C132.051 218.607 130.753 247.329 128.125 269.341C130.873 269.426 160.678 274.359 160.5 273.482C161.393 277.877 160.601 277.193 160.779 281.578C161.109 289.671 161.711 297.75 162.437 305.817C163.264 314.997 164.682 324.016 166.74 332.945C187.661 339.873 211.533 338.185 233.966 336.173C240.363 335.599 247 334.952 252.531 331.706C268.095 322.575 268.757 295.592 270.979 279.887C272.697 267.738 275.233 256.37 274.223 243.964Z" fill="white"/>
<path d="M117.578 400.747C117.134 397.133 119.205 392.98 122.299 390.686C126.581 387.511 132.097 386.686 137.175 385.063C142.884 383.238 148.178 380.332 153.66 377.907C159.143 375.482 164.999 373.506 170.989 373.72C176.98 373.935 183.155 376.697 186.152 381.889C188.666 386.245 188.122 391.655 185.193 395.625C182.202 399.677 178.684 398.793 174.016 399.305C165.618 400.228 157.514 402.73 149.565 405.498C141.046 408.464 134.912 409.659 125.853 407.666C123.447 407.137 120.951 406.357 119.291 404.54C118.29 403.447 117.748 402.137 117.578 400.747Z" fill="black"/>
<path d="M146.568 398.26C147.401 400.287 148.541 402.186 149.939 403.874C150.245 404.244 150.61 404.631 151.088 404.682C152.083 404.79 152.566 403.514 152.709 402.523C153.045 400.197 153.38 397.871 153.715 395.545C155.068 396.973 156.179 398.63 156.985 400.425C157.469 401.502 158.075 402.811 159.252 402.912C160.685 403.035 161.46 401.302 161.801 399.905C162.417 397.38 163.032 394.853 163.649 392.328" stroke="#FF9C40" stroke-miterlimit="10" stroke-linecap="round" stroke-linejoin="round"/>
<path d="M64.6126 308.865C69.1918 303.822 75.7113 300.558 82.4001 299.312C91.7834 297.565 101.476 299.259 110.681 301.78C130.183 307.12 148.47 316.123 168.074 321.132C176.766 323.353 182.434 322.53 190.93 321.848C201.702 320.984 212.761 322.039 223.599 321.402C233.73 320.805 244.694 320.026 254.161 322.801C255.412 321.984 256.658 321.165 257.901 320.354C268.494 313.443 279.045 306.56 292.329 309.077C302.774 311.056 312.844 316.323 319.314 324.873C326.187 333.957 324.124 345.817 317.966 354.873C312.867 362.37 305.332 367.888 297.528 372.544C270.606 388.605 241.2 398.449 209.43 396.255C205.178 395.961 200.165 395.914 197.102 399.31C195.95 400.587 195.282 407.585 192.726 407.283C189.581 406.912 183.521 406.036 180.548 404.968C164.495 399.201 148.441 393.433 132.389 387.667C118.284 382.599 104.076 377.484 91.2268 369.795C80.1133 363.146 70.0472 354.151 64.1457 342.499C59.8914 334.099 56.3982 323.03 60.8411 314.303C61.8567 312.31 63.1335 310.495 64.6126 308.865Z" fill="#FBD15B"/>
<path d="M263.864 333.011C247.886 340.954 231.015 346.123 214.779 353.405C208.681 356.14 202.583 358.874 196.485 361.609C193.039 363.156 189.591 364.702 186.199 366.366" stroke="black" stroke-miterlimit="10" stroke-linecap="round" stroke-linejoin="round"/>
<path d="M247.618 411.634C242.844 404.112 235.427 398.128 231.305 390.357C230.43 388.709 229.648 386.966 228.341 385.631C226.002 383.24 221.504 383.56 218.379 383.192C214.111 382.688 209.843 382.185 205.575 381.68C205.293 381.647 204.994 381.617 204.735 381.735C204.728 381.738 204.725 381.746 204.718 381.75C203.817 385.068 201.832 388.102 200.296 391.132C199.392 392.915 196.748 399.59 196.389 400.649C198.138 401.961 201.938 403.178 204.342 404.074C209.464 405.985 214.715 407.971 218.8 411.605C221.813 414.286 224.03 417.724 226.315 421.048C228.601 424.372 231.059 427.689 234.388 429.967C237.716 432.245 242.107 433.339 245.856 431.851C253.978 428.628 251.144 417.191 247.618 411.634Z" fill="black"/>
<path d="M180.806 337.23C179.643 336.645 178.758 335.606 178.066 333.636C176.909 330.341 177.588 326.434 179.452 323.53C182.073 319.444 186.662 316.963 191.36 315.674C196.057 314.385 200.967 314.125 205.795 313.474C213.976 312.372 222.001 310.126 229.56 306.823C233.173 305.244 236.814 303.316 239.139 300.143C241.701 296.644 242.308 292.14 242.836 287.843C243.622 281.444 244.408 275.045 245.195 268.645C245.877 263.086 246.61 257.371 249.328 252.467C252.047 247.563 257.262 243.598 262.875 244.045C267.664 244.425 271.749 247.925 274.105 252.089C277.941 258.867 279.818 269.148 280.991 276.816C282.311 285.438 281.449 294.253 279.869 302.779C277.815 313.864 271.623 323.308 261.627 328.854C239.242 341.276 210.67 340.465 185.94 338.174C183.792 337.975 182.12 337.891 180.806 337.23Z" fill="#F9BAA7"/>
<path d="M189.403 120.844C186.709 121.057 183.991 121.083 181.291 121.025C176.555 120.923 171.314 120.725 167.682 123.767C165.317 125.748 164.063 128.978 164.472 132.036C164.881 135.094 166.938 137.881 169.74 139.171C177.222 142.617 192.055 131.772 196.021 141.416C197.58 145.21 196.998 148.424 200.032 151.654C202.479 154.257 205.714 155.272 207.01 158.966C208.02 161.847 208.479 165.004 210.277 167.567C210.737 168.222 211.263 168.828 211.789 169.433C212.724 170.509 213.619 171.593 214.629 172.591C218.307 169.962 222.932 170.728 225.468 165.836C225.995 164.819 226.37 163.693 227.157 162.862C228.925 160.994 232.398 160.976 233.404 158.61C234.375 156.325 232.174 153.879 232.253 151.398C232.346 148.49 235.508 146.341 235.512 143.43C235.519 139.5 230.14 137.814 228.748 134.138C226.877 129.198 229.012 127.13 224.765 123.339C217.162 116.555 207.275 116.764 198.074 119.363C195.245 120.163 192.338 120.614 189.403 120.844Z" fill="black"/>
<path d="M194.349 151.657L203.612 149.149C204.824 148.821 206.121 149.109 207.079 149.921L210.916 153.174" stroke="black" stroke-width="2" stroke-miterlimit="10" stroke-linecap="round" stroke-linejoin="round"/>
<path d="M108.346 317.456C126.419 325.585 140.963 339.705 157.418 350.72C172.785 361.006 189.799 368.563 206.716 376.067C205.832 377.996 205.473 379.898 204.589 381.827" stroke="black" stroke-miterlimit="10" stroke-linecap="round" stroke-linejoin="round"/>
<path d="M185.556 164.033C184.475 167.538 180.168 169.667 176.706 168.406" stroke="#1C1C1B" stroke-miterlimit="10" stroke-linecap="round" stroke-linejoin="round"/>
<path d="M203.791 163.014C210.452 164.671 214.6 157.689 212.575 153.136C209.757 146.8 200.821 147.852 199.187 154.512" fill="#F9BAA7"/>
<path d="M207.201 152.6C205.948 152.257 204.502 152.463 203.453 153.134C202.405 153.805 201.782 154.922 201.841 156.03" fill="#F9BAA7"/>
<path d="M207.201 152.6C205.948 152.257 204.502 152.463 203.453 153.134C202.405 153.805 201.782 154.922 201.841 156.03" stroke="#1C1C1B" stroke-miterlimit="10" stroke-linecap="round" stroke-linejoin="round"/>
<path d="M237.533 282.934C242.382 281.457 247.417 280.642 252.43 279.94C257.747 279.196 263.05 278.465 268.339 277.527C273.269 276.654 278.195 275.766 283.12 274.869C282.68 270.76 282.202 266.654 281.628 262.561C278.933 243.328 273.891 224.696 260.153 210.895L235.267 233.617C237.85 243.857 237.544 273.297 237.533 282.934Z" fill="white"/>
<path d="M237.391 347.106H134.932C133.432 347.106 132.215 345.896 132.215 344.404C132.215 342.912 133.432 341.703 134.932 341.703H237.391C238.892 341.703 240.108 342.913 240.108 344.404C240.109 345.896 238.892 347.106 237.391 347.106Z" fill="black"/>
<path d="M222.193 343.441H132.52L113.895 297.697C113.288 296.207 114.39 294.581 116.006 294.581H200.763C201.691 294.581 202.526 295.141 202.875 295.996L222.193 343.441Z" fill="black"/>
<path d="M158.604 319.041C159.557 321.519 162.773 323.528 165.787 323.528C168.801 323.528 170.471 321.52 169.518 319.041" fill="white"/>
<path d="M160.498 273.481C159.74 262.773 159.787 247.168 160.438 236.453L160.498 273.481Z" fill="#EE7273"/>
<path d="M160.498 273.481C159.74 262.773 159.787 247.168 160.438 236.453" stroke="black" stroke-miterlimit="10" stroke-linecap="round" stroke-linejoin="round"/>
<path d="M185.974 179.701L185.74 180.265C185.973 181.848 185.86 183.425 185.608 185.001C186 184.902 186.393 184.808 186.779 184.69C190.303 183.605 193.221 180.744 194.697 177.383C192.037 178.846 189.013 179.649 185.974 179.701Z" fill="black"/>
<path d="M242.416 281.154C243.098 266.852 241.189 256.194 238.259 242.179L242.416 281.154Z" fill="white"/>
<path d="M242.416 281.154C243.098 266.852 241.189 256.194 238.259 242.179" stroke="black" stroke-miterlimit="10" stroke-linecap="round" stroke-linejoin="round"/>
<path d="M176.85 151.424C176.85 155.162 173.821 158.19 170.084 158.19C166.347 158.19 163.317 155.161 163.317 151.424C163.317 147.687 166.347 144.658 170.084 144.658C173.821 144.657 176.85 147.687 176.85 151.424Z" stroke="black" stroke-width="2" stroke-miterlimit="10" stroke-linecap="round" stroke-linejoin="round"/>
<path d="M194.349 151.657C194.349 155.395 191.32 158.423 187.583 158.423C183.846 158.423 180.817 155.394 180.817 151.657C180.817 147.92 183.847 144.891 187.583 144.891C191.32 144.891 194.349 147.92 194.349 151.657Z" stroke="black" stroke-width="2" stroke-miterlimit="10" stroke-linecap="round" stroke-linejoin="round"/>
<path d="M176.851 151.424L180.816 151.657" stroke="black" stroke-width="2" stroke-miterlimit="10" stroke-linecap="round" stroke-linejoin="round"/>
<path d="M210.484 398.592C208.863 401.805 207.75 405.276 207.197 408.833C207.145 409.163 207.104 409.526 207.282 409.81C207.603 410.324 208.378 410.233 208.94 410.005C212.257 408.653 214.439 404.782 218.012 404.524C217.304 408.137 214.359 411.289 214.726 414.952C214.76 415.292 214.835 415.652 215.08 415.89C215.447 416.245 216.041 416.189 216.53 416.043C219.218 415.235 220.933 412.533 223.514 411.433C224.173 411.152 225.091 411.059 225.466 411.669C225.762 412.152 225.522 412.772 225.279 413.285C224.13 415.709 222.98 418.132 221.83 420.556" stroke="#FF9C40" stroke-miterlimit="10" stroke-linecap="round" stroke-linejoin="round"/>
<path d="M51.5168 161.572H106.849C116.362 161.572 124.073 169.14 124.073 178.476V194.325C124.073 203.558 116.524 211.082 107.118 211.227L55.5337 212.017C47.3533 212.142 40.2124 206.603 38.4471 198.764L34.6994 182.124C32.3229 171.572 40.5067 161.572 51.5168 161.572Z" fill="#FBD15B"/>
<path d="M92.173 186.955C90.0442 201.334 92.2775 216.309 98.5153 229.487C82.4761 224.344 72.0454 206.212 75.843 190.078" fill="#FBD15B"/>
<path d="M49.2232 186.059L57.3967 180.148L64.2798 186.059L74.6037 180.148L81.0562 186.903L92.2401 180.148L98.6926 187.747L105.576 180.148" fill="#FBD15B"/>
<path d="M49.2232 186.059L57.3967 180.148L64.2798 186.059L74.6037 180.148L81.0562 186.903L92.2401 180.148L98.6926 187.747L105.576 180.148" stroke="#1D1D1B" stroke-miterlimit="10"/>
<path d="M50.0843 195.769L106.436 194.08" stroke="#1D1D1B" stroke-miterlimit="10"/>
<path d="M291.723 62.7038L292.212 84.2673C292.411 93.0361 299.754 99.943 308.519 99.6056L370.678 97.2143C378.523 96.9121 384.941 90.8652 385.706 83.0518L388.349 56.1059C389.328 46.1216 380.823 37.7902 370.86 38.9773L305.568 46.7498C297.532 47.7063 291.539 54.6132 291.723 62.7038Z" fill="#FBD15B"/>
<path d="M313.224 110.089C307.601 117.967 297.498 120.978 288.149 123.485C299.869 124.041 311.713 121.816 322.432 117.043C324.341 116.193 326.263 115.229 327.672 113.686C329.323 111.878 330.106 109.458 330.772 107.099C333.942 95.8545 336.313 82.936 335.206 71.2056C334.368 62.3414 327.033 52.106 318.044 63.5512C309.674 74.2069 323.237 96.0624 313.224 110.089Z" fill="#FBD15B"/>
<path d="M312.189 72.7585L319.642 67.2671L325.92 72.7585L335.334 67.2671L341.218 73.5435L351.418 67.2671L357.302 74.3285L363.579 67.2671" fill="#FBD15B"/>
<path d="M312.189 72.7585L319.642 67.2671L325.92 72.7585L335.334 67.2671L341.218 73.5435L351.418 67.2671L357.302 74.3285L363.579 67.2671" stroke="#1D1D1B" stroke-miterlimit="10"/>
<path d="M311.405 59.0288L367.11 57.46" stroke="#1D1D1B" stroke-miterlimit="10"/>
<path d="M311.797 81.3887H366.717" stroke="#1D1D1B" stroke-miterlimit="10"/>
<path d="M413.875 175.941C419.725 175.941 424.467 171.199 424.467 165.349C424.467 159.5 419.725 154.757 413.875 154.757C408.025 154.757 403.283 159.5 403.283 165.349C403.283 171.199 408.025 175.941 413.875 175.941Z" fill="#DACAFC"/>
<path d="M13.8152 363.061C18.5677 363.061 22.4204 359.186 22.4204 354.406C22.4204 349.626 18.5677 345.751 13.8152 345.751C9.0627 345.751 5.21002 349.626 5.21002 354.406C5.21002 359.186 9.0627 363.061 13.8152 363.061Z" fill="#DACAFC"/>
<path d="M298.248 16.4765C302.798 16.4765 306.486 12.7881 306.486 8.23827C306.486 3.6884 302.798 0 298.248 0C293.698 0 290.01 3.6884 290.01 8.23827C290.01 12.7881 293.698 16.4765 298.248 16.4765Z" fill="#DACAFC"/>
<path d="M405.931 142.4L409.461 111.802L367.937 135.338L405.931 142.4Z" stroke="#FF9C40" stroke-width="2" stroke-miterlimit="10" stroke-linecap="round" stroke-linejoin="round"/>
<path d="M1.00006 368.808L38.3733 390.903L57.4888 368.808H1.00006Z" stroke="#FF9C40" stroke-width="2" stroke-miterlimit="10" stroke-linecap="round" stroke-linejoin="round"/>
<path d="M34.52 67.4489H2.336V86.7983H34.52V67.4489Z" stroke="#FF9C40" stroke-width="2" stroke-miterlimit="10" stroke-linecap="round" stroke-linejoin="round"/>
<path d="M399.517 284.132C403.538 284.132 406.797 287.391 406.797 291.412C406.797 295.434 403.538 298.693 399.517 298.693" stroke="#FF9C40" stroke-width="2" stroke-miterlimit="10" stroke-linecap="round" stroke-linejoin="round"/>
</svg>
