<?xml version="1.0" encoding="UTF-8"?>
<svg id="Camada_1" data-name="Camada 1" xmlns="http://www.w3.org/2000/svg" viewBox="0 0 1010 529.16">
  <defs>
    <style>
      .cls-1 {
        fill: #fbd15b;
      }
    </style>
  </defs>
  <path class="cls-1" d="M985.44,295.09c-16.37-22.57-45.9-38.82-88.57-48.75,31.75-11.91,53.71-26.91,65.87-45.02,12.15-18.11,18.23-39.56,18.23-64.38,0-40.68-14.88-73.68-44.65-98.99C906.55,12.65,863.38,0,806.82,0h-197.53c-39.89,89.66-139.16,279.94-165.97,369.14C414.65,279.42,317.72,90.89,277.36,0h-129.5v385.71c-1.21,16.77-6.95,28.99-17.24,36.65-11.66,8.69-26.17,13.02-43.54,13.02-20.84,0-36.73-3.97-47.63-11.91L0,509.06c10.42,6.45,24.81,11.42,43.17,14.88,18.35,3.46,37.7,5.21,58.05,5.21,29.27,0,55.19-5.21,77.77-15.63,22.57-10.42,40.43-26.42,53.58-48,5.78-9.49,10.28-20.15,13.52-31.98,0,0,0-.01,0-.02.45-1.22.87-2.89,1.26-4.92,3.29-13.83,4.94-29.19,4.94-46.06v-202.58l163.49,341.01h50.61l164.78-343.71v343.71h194.25c56.56,0,101.46-13.02,134.71-39.07,33.24-26.05,49.87-60.9,49.87-104.57,0-32.25-8.19-59.66-24.56-82.24ZM735.37,93.03h61.77c28.28,0,48.38,5.58,60.29,16.75,11.91,11.16,17.86,25.68,17.86,43.54,0,20.84-5.95,36.35-17.86,46.52-11.91,10.18-32,15.26-60.29,15.26h-61.77v-122.05ZM881.24,411.2c-15.38,10.67-37.21,16-65.49,16h-80.38v-127.26h80.38c28.28,0,50.11,5.47,65.49,16.37,15.37,10.92,23.07,25.8,23.07,44.65,0,22.83-7.69,39.57-23.07,50.24Z"/>
</svg>