<svg width="32" height="32" viewBox="0 0 32 32" fill="none" xmlns="http://www.w3.org/2000/svg">
<mask id="path-1-inside-1_81_2723" fill="white">
<path d="M17.5068 15.9163C17.7812 15.8865 17.9794 15.6397 17.9496 15.3652C17.9198 15.0906 17.6737 14.8935 17.3984 14.9221C14.1518 15.2739 12.6081 14.0781 11.8854 13.012C10.8757 11.522 10.8532 9.3711 11.8283 7.53245C12.7997 5.70115 14.5063 4.6511 16.5111 4.6511H16.5126C18.0399 4.6511 19.41 5.27415 20.1776 6.31735C20.9784 7.4055 21.1093 8.91795 20.5565 10.6916C20.3397 11.3877 19.6322 12.3008 19.0096 12.4807C18.7557 12.5549 18.555 12.5276 18.3978 12.3974C18.2167 12.2468 18.1517 12.0129 18.1571 11.9204C18.1581 11.9145 18.1586 11.9091 18.1591 11.9033L18.7069 6.4252C18.7362 6.15055 18.5375 5.9042 18.2631 5.87515C17.9838 5.84465 17.7421 6.0446 17.7128 6.31925L17.6643 6.77355C17.6556 6.76705 17.6484 6.7592 17.6395 6.75285C16.9989 6.29215 16.1012 6.24725 15.2372 6.633C13.766 7.28875 12.7037 9.373 12.9637 11.093C13.1588 12.383 14.0682 13.2185 15.4596 13.3852C16.0982 13.4612 16.8822 13.2727 17.4637 12.8427C17.5482 12.9641 17.6478 13.0744 17.7591 13.1669C18.1712 13.5087 18.7137 13.6066 19.2874 13.4413C20.2918 13.1508 21.2069 11.9662 21.5115 10.9889C22.3338 8.34925 21.678 6.6691 20.9832 5.72475C20.0277 4.42615 18.3563 3.651 16.5125 3.651H16.5111C14.1241 3.651 12.0953 4.8949 10.9449 7.0636C9.79842 9.2252 9.84262 11.7802 11.0577 13.5729C12.1244 15.1467 13.9693 15.9823 16.3243 15.9823C16.7055 15.9824 17.1 15.9605 17.5068 15.9163ZM17.4565 8.74805L17.1718 11.7188C16.8813 12.1961 16.1191 12.4561 15.5781 12.3924C14.6276 12.2784 14.0808 11.7911 13.9526 10.9436C13.7602 9.6709 14.5822 8.01975 15.6445 7.54615C15.9013 7.43165 16.1611 7.3745 16.3998 7.3745C16.6513 7.3745 16.8798 7.4382 17.0556 7.5647C17.3705 7.791 17.5087 8.2002 17.4565 8.74805Z"/>
</mask>
<path d="M17.5068 15.9163C17.7812 15.8865 17.9794 15.6397 17.9496 15.3652C17.9198 15.0906 17.6737 14.8935 17.3984 14.9221C14.1518 15.2739 12.6081 14.0781 11.8854 13.012C10.8757 11.522 10.8532 9.3711 11.8283 7.53245C12.7997 5.70115 14.5063 4.6511 16.5111 4.6511H16.5126C18.0399 4.6511 19.41 5.27415 20.1776 6.31735C20.9784 7.4055 21.1093 8.91795 20.5565 10.6916C20.3397 11.3877 19.6322 12.3008 19.0096 12.4807C18.7557 12.5549 18.555 12.5276 18.3978 12.3974C18.2167 12.2468 18.1517 12.0129 18.1571 11.9204C18.1581 11.9145 18.1586 11.9091 18.1591 11.9033L18.7069 6.4252C18.7362 6.15055 18.5375 5.9042 18.2631 5.87515C17.9838 5.84465 17.7421 6.0446 17.7128 6.31925L17.6643 6.77355C17.6556 6.76705 17.6484 6.7592 17.6395 6.75285C16.9989 6.29215 16.1012 6.24725 15.2372 6.633C13.766 7.28875 12.7037 9.373 12.9637 11.093C13.1588 12.383 14.0682 13.2185 15.4596 13.3852C16.0982 13.4612 16.8822 13.2727 17.4637 12.8427C17.5482 12.9641 17.6478 13.0744 17.7591 13.1669C18.1712 13.5087 18.7137 13.6066 19.2874 13.4413C20.2918 13.1508 21.2069 11.9662 21.5115 10.9889C22.3338 8.34925 21.678 6.6691 20.9832 5.72475C20.0277 4.42615 18.3563 3.651 16.5125 3.651H16.5111C14.1241 3.651 12.0953 4.8949 10.9449 7.0636C9.79842 9.2252 9.84262 11.7802 11.0577 13.5729C12.1244 15.1467 13.9693 15.9823 16.3243 15.9823C16.7055 15.9824 17.1 15.9605 17.5068 15.9163ZM17.4565 8.74805L17.1718 11.7188C16.8813 12.1961 16.1191 12.4561 15.5781 12.3924C14.6276 12.2784 14.0808 11.7911 13.9526 10.9436C13.7602 9.6709 14.5822 8.01975 15.6445 7.54615C15.9013 7.43165 16.1611 7.3745 16.3998 7.3745C16.6513 7.3745 16.8798 7.4382 17.0556 7.5647C17.3705 7.791 17.5087 8.2002 17.4565 8.74805Z" fill="white"/>
<path d="M17.5068 15.9163L17.2908 13.9279L17.2907 13.928L17.5068 15.9163ZM17.9496 15.3652L15.9613 15.5809L15.9613 15.5811L17.9496 15.3652ZM17.3984 14.9221L17.1917 12.9328L17.1829 12.9337L17.3984 14.9221ZM11.8854 13.012L10.2298 14.1339L10.2299 14.1341L11.8854 13.012ZM11.8283 7.53245L10.0615 6.59522L10.0614 6.5954L11.8283 7.53245ZM20.1776 6.31735L18.5667 7.50267L18.5668 7.50279L20.1776 6.31735ZM20.5565 10.6916L18.6471 10.0965L18.647 10.0968L20.5565 10.6916ZM19.0096 12.4807L18.4544 10.5592L18.4486 10.5609L19.0096 12.4807ZM18.3978 12.3974L17.119 13.9351L17.1224 13.9379L18.3978 12.3974ZM18.1571 11.9204L16.1857 11.5834L16.167 11.6929L16.1605 11.8039L18.1571 11.9204ZM18.1591 11.9033L16.169 11.7042L16.1676 11.7186L16.1663 11.7329L18.1591 11.9033ZM18.7069 6.4252L16.7182 6.21304L16.7169 6.22618L18.7069 6.4252ZM18.2631 5.87515L18.046 7.86334L18.0525 7.86404L18.2631 5.87515ZM17.7128 6.31925L15.7241 6.10709L15.7241 6.10716L17.7128 6.31925ZM17.6643 6.77355L16.4717 8.37904L19.2818 10.4666L19.653 6.98565L17.6643 6.77355ZM17.6395 6.75285L16.4719 8.3766L16.4736 8.37783L17.6395 6.75285ZM15.2372 6.633L16.0514 8.45976L16.0525 8.45925L15.2372 6.633ZM12.9637 11.093L10.9862 11.3919L10.9862 11.3919L12.9637 11.093ZM15.4596 13.3852L15.2216 15.371L15.2234 15.3712L15.4596 13.3852ZM17.4637 12.8427L19.1053 11.7003L17.9297 10.011L16.2747 11.2345L17.4637 12.8427ZM17.7591 13.1669L16.4808 14.705L16.4823 14.7063L17.7591 13.1669ZM19.2874 13.4413L19.8412 15.3631L19.8432 15.3625L19.2874 13.4413ZM21.5115 10.9889L23.4209 11.5841L23.421 11.5837L21.5115 10.9889ZM20.9832 5.72475L22.5942 4.5395L22.5941 4.53941L20.9832 5.72475ZM10.9449 7.0636L9.17811 6.12638L9.17807 6.12647L10.9449 7.0636ZM11.0577 13.5729L12.7133 12.4508L12.7133 12.4508L11.0577 13.5729ZM16.3243 15.9823L16.3248 13.9823H16.3243V15.9823ZM17.4565 8.74805L19.4474 8.93882L19.4474 8.93793L17.4565 8.74805ZM17.1718 11.7188L18.8802 12.7587L19.1189 12.3665L19.1627 11.9095L17.1718 11.7188ZM15.5781 12.3924L15.3399 14.3781L15.3442 14.3786L15.5781 12.3924ZM13.9526 10.9436L11.975 11.2426L11.9751 11.2428L13.9526 10.9436ZM15.6445 7.54615L14.8302 5.71944L14.8301 5.71948L15.6445 7.54615ZM17.0556 7.5647L15.8872 9.18795L15.8885 9.1889L17.0556 7.5647ZM17.5068 15.9163L17.7227 17.9046C19.0965 17.7554 20.0868 16.5206 19.9379 15.1493L17.9496 15.3652L15.9613 15.5811C15.872 14.7587 16.4659 14.0175 17.2908 13.9279L17.5068 15.9163ZM17.9496 15.3652L19.938 15.1495C19.7881 13.7685 18.5505 12.7917 17.1918 12.9328L17.3984 14.9221L17.605 16.9114C16.797 16.9953 16.0515 16.4126 15.9613 15.5809L17.9496 15.3652ZM17.3984 14.9221L17.1829 12.9337C15.8373 13.0796 15.0032 12.8892 14.5011 12.6682C14.0062 12.4504 13.7192 12.1528 13.541 11.8898L11.8854 13.012L10.2299 14.1341C10.7743 14.9373 11.6204 15.7706 12.8897 16.3293C14.1518 16.8848 15.7129 17.1165 17.6138 16.9105L17.3984 14.9221ZM11.8854 13.012L13.5411 11.89C13.0199 11.1209 12.9012 9.77813 13.5952 8.4695L11.8283 7.53245L10.0614 6.5954C8.80519 8.96407 8.73147 11.923 10.2298 14.1339L11.8854 13.012ZM11.8283 7.53245L13.5951 8.46969C14.2344 7.26442 15.2775 6.6511 16.5111 6.6511V4.6511V2.6511C13.735 2.6511 11.365 4.13788 10.0615 6.59522L11.8283 7.53245ZM16.5111 4.6511V6.6511H16.5126V4.6511V2.6511H16.5111V4.6511ZM16.5126 4.6511V6.6511C17.533 6.6511 18.2465 7.06745 18.5667 7.50267L20.1776 6.31735L21.7885 5.13203C20.5736 3.48085 18.5468 2.6511 16.5126 2.6511V4.6511ZM20.1776 6.31735L18.5668 7.50279C18.8606 7.90199 19.0871 8.68477 18.6471 10.0965L20.5565 10.6916L22.4659 11.2867C23.1315 9.15113 23.0963 6.90901 21.7884 5.13191L20.1776 6.31735ZM20.5565 10.6916L18.647 10.0968C18.6471 10.0965 18.6459 10.1003 18.6429 10.1083C18.6398 10.1163 18.6353 10.1273 18.6291 10.1412C18.6164 10.1695 18.5984 10.2052 18.5748 10.2466C18.5262 10.3315 18.465 10.42 18.3995 10.4984C18.3322 10.5792 18.2806 10.625 18.259 10.6418C18.2497 10.649 18.2575 10.6417 18.2838 10.6273C18.3093 10.6133 18.3666 10.5846 18.4544 10.5593L19.0096 12.4807L19.5648 14.402C20.4466 14.1473 21.0961 13.5103 21.471 13.0609C21.883 12.567 22.2634 11.9369 22.466 11.2864L20.5565 10.6916ZM19.0096 12.4807L18.4486 10.5609C18.5142 10.5418 18.6907 10.5004 18.9371 10.5339C19.206 10.5705 19.4648 10.6843 19.6733 10.8569L18.3978 12.3974L17.1224 13.9379C17.9395 14.6145 18.8903 14.5992 19.5706 14.4004L19.0096 12.4807ZM18.3978 12.3974L19.6766 10.8597C19.8813 11.0299 19.9887 11.2165 20.0449 11.3471C20.0749 11.4169 20.1011 11.4955 20.1208 11.5852C20.1361 11.6553 20.1666 11.8169 20.1537 12.0368L18.1571 11.9204L16.1605 11.8039C16.1337 12.2642 16.258 12.6662 16.3701 12.9271C16.5027 13.2354 16.7332 13.6142 17.119 13.9351L18.3978 12.3974ZM18.1571 11.9204L20.1285 12.2573C20.138 12.2022 20.1436 12.156 20.147 12.1238C20.1487 12.1081 20.1499 12.0952 20.1506 12.0872C20.151 12.0831 20.1513 12.0797 20.1515 12.0775C20.1516 12.0756 20.1518 12.0736 20.1518 12.0736L18.1591 11.9033L16.1663 11.7329C16.1656 11.7417 16.1672 11.722 16.1696 11.6998C16.1724 11.6732 16.1773 11.6326 16.1857 11.5834L18.1571 11.9204ZM18.1591 11.9033L20.1491 12.1023L20.697 6.62423L18.7069 6.4252L16.7169 6.22618L16.169 11.7042L18.1591 11.9033ZM18.7069 6.4252L20.6956 6.63736C20.8419 5.26598 19.8493 4.03191 18.4736 3.88627L18.2631 5.87515L18.0525 7.86404C17.2256 7.7765 16.6305 7.03512 16.7182 6.21304L18.7069 6.4252ZM18.2631 5.87515L18.4802 3.88697C17.0827 3.73436 15.8688 4.75047 15.7241 6.10709L17.7128 6.31925L19.7015 6.53141C19.6154 7.33873 18.8848 7.95494 18.046 7.86333L18.2631 5.87515ZM17.7128 6.31925L15.7241 6.10716L15.6756 6.56146L17.6643 6.77355L19.653 6.98565L19.7015 6.53135L17.7128 6.31925ZM17.6643 6.77355L18.857 5.16806C18.9032 5.20243 18.9385 5.23194 18.9585 5.24903C18.9686 5.25771 18.9764 5.26458 18.9803 5.268C18.9833 5.27064 18.9867 5.27365 18.9835 5.2708C18.982 5.2695 18.9757 5.2639 18.9681 5.25715C18.96 5.2501 18.9482 5.2398 18.9337 5.22764C18.9051 5.20356 18.8612 5.16787 18.8055 5.12787L17.6395 6.75285L16.4736 8.37783C16.4476 8.35921 16.4249 8.34194 16.4058 8.32687C16.3867 8.31184 16.3706 8.29857 16.3581 8.28806C16.3457 8.27763 16.3359 8.26909 16.3299 8.2638C16.3268 8.26111 16.3243 8.25894 16.3228 8.2576C16.3221 8.25692 16.3214 8.25637 16.3211 8.25603C16.3209 8.25586 16.3207 8.25572 16.3206 8.25563C16.3205 8.25554 16.3205 8.25549 16.3205 8.25549C16.3199 8.25495 16.3218 8.25667 16.3227 8.25751C16.3242 8.2588 16.3266 8.26099 16.3296 8.26364C16.3355 8.26884 16.3453 8.27748 16.3575 8.2879C16.3698 8.29845 16.3858 8.31187 16.4046 8.32709C16.4235 8.34236 16.446 8.35997 16.4717 8.37904L17.6643 6.77355ZM17.6395 6.75285L18.8072 5.1291C17.465 4.16392 15.7835 4.19878 14.4218 4.80675L15.2372 6.633L16.0525 8.45925C16.2256 8.382 16.3537 8.36959 16.4224 8.37302C16.4874 8.37627 16.493 8.39178 16.4719 8.3766L17.6395 6.75285ZM15.2372 6.633L14.4229 4.80625C13.1589 5.36964 12.2319 6.45208 11.6694 7.55565C11.1016 8.6696 10.7821 10.0418 10.9862 11.3919L12.9637 11.093L14.9413 10.794C14.8854 10.4242 14.967 9.89425 15.2331 9.37215C15.5045 8.83968 15.8442 8.55211 16.0514 8.45975L15.2372 6.633ZM12.9637 11.093L10.9862 11.3919C11.1453 12.444 11.617 13.4048 12.4101 14.1333C13.1951 14.8543 14.1835 15.2466 15.2216 15.371L15.4596 13.3852L15.6976 11.3994C15.3443 11.3571 15.1823 11.2483 15.1159 11.1873C15.0577 11.1339 14.9772 11.0319 14.9412 10.794L12.9637 11.093ZM15.4596 13.3852L15.2234 15.3712C16.3601 15.5064 17.6553 15.1883 18.6527 14.4509L17.4637 12.8427L16.2747 11.2345C16.2112 11.2815 16.1074 11.3345 15.9758 11.3691C15.8418 11.4042 15.7392 11.4044 15.6958 11.3992L15.4596 13.3852ZM17.4637 12.8427L15.8221 13.9851C16.0017 14.2432 16.2213 14.4894 16.4808 14.705L17.7591 13.1669L19.0375 11.6288C19.0744 11.6594 19.0946 11.6849 19.1053 11.7003L17.4637 12.8427ZM17.7591 13.1669L16.4823 14.7063C17.4672 15.5232 18.7151 15.6876 19.8412 15.3631L19.2874 13.4413L18.7337 11.5195C18.7099 11.5264 18.7422 11.5125 18.8166 11.5258C18.8955 11.54 18.9752 11.5771 19.0359 11.6275L17.7591 13.1669ZM19.2874 13.4413L19.8432 15.3625C20.8502 15.0712 21.6389 14.4016 22.1759 13.7794C22.7269 13.141 23.1781 12.363 23.4209 11.5841L21.5115 10.9889L19.6021 10.3937C19.5403 10.5921 19.3816 10.895 19.1479 11.1658C18.9001 11.4529 18.7291 11.5208 18.7317 11.5201L19.2874 13.4413ZM21.5115 10.9889L23.421 11.5837C24.4348 8.32927 23.661 5.98946 22.5942 4.5395L20.9832 5.72475L19.3723 6.91C19.6951 7.34874 20.2328 8.36923 19.602 10.3941L21.5115 10.9889ZM20.9832 5.72475L22.5941 4.53941C21.2036 2.64971 18.8875 1.651 16.5125 1.651V3.651V5.651C17.8251 5.651 18.8517 6.20259 19.3723 6.91009L20.9832 5.72475ZM16.5125 3.651V1.651H16.5111V3.651V5.651H16.5125V3.651ZM16.5111 3.651V1.651C13.3578 1.651 10.663 3.32717 9.17811 6.12638L10.9449 7.0636L12.7117 8.00082C13.5277 6.46263 14.8905 5.651 16.5111 5.651V3.651ZM10.9449 7.0636L9.17807 6.12647C7.73974 8.83828 7.70958 12.1978 9.40217 14.695L11.0577 13.5729L12.7133 12.4508C11.9757 11.3625 11.8571 9.61212 12.7118 8.00073L10.9449 7.0636ZM11.0577 13.5729L9.40216 14.695C10.936 16.958 13.4955 17.9823 16.3243 17.9823V15.9823V13.9823C14.4431 13.9823 13.3128 13.3353 12.7133 12.4508L11.0577 13.5729ZM16.3243 15.9823L16.3238 17.9823C16.7819 17.9824 17.2489 17.956 17.7228 17.9045L17.5068 15.9163L17.2907 13.928C16.9512 13.9649 16.629 13.9824 16.3248 13.9823L16.3243 15.9823ZM17.4565 8.74805L15.4656 8.55729L15.1809 11.528L17.1718 11.7188L19.1627 11.9095L19.4474 8.93882L17.4565 8.74805ZM17.1718 11.7188L15.4635 10.6788C15.5491 10.5382 15.6378 10.4632 15.6769 10.4338C15.7176 10.4034 15.7385 10.3966 15.7321 10.3991C15.7308 10.3996 15.7277 10.4007 15.7235 10.4019C15.7192 10.403 15.7167 10.4034 15.717 10.4033C15.7171 10.4033 15.7235 10.4023 15.7368 10.402C15.7498 10.4016 15.7752 10.4017 15.8119 10.4061L15.5781 12.3924L15.3442 14.3786C15.9944 14.4552 16.6542 14.3363 17.2057 14.1178C17.7412 13.9055 18.4319 13.4951 18.8802 12.7587L17.1718 11.7188ZM15.5781 12.3924L15.8163 10.4066C15.6218 10.3833 15.6717 10.3466 15.7877 10.4499C15.844 10.5002 15.8863 10.5585 15.9123 10.6099C15.9365 10.6578 15.9349 10.6764 15.9301 10.6444L13.9526 10.9436L11.9751 11.2428C12.0962 12.0435 12.4478 12.8314 13.1263 13.4361C13.7854 14.0235 14.5839 14.2874 15.3399 14.3781L15.5781 12.3924ZM13.9526 10.9436L15.9301 10.6446C15.9099 10.5108 15.9388 10.1972 16.1184 9.8367C16.2001 9.6725 16.2919 9.54358 16.3723 9.45675C16.4561 9.36626 16.4935 9.35737 16.4589 9.37282L15.6445 7.54615L14.8301 5.71948C13.7335 6.2084 12.9773 7.17096 12.5377 8.05372C12.0887 8.95538 11.8029 10.1037 11.975 11.2426L13.9526 10.9436ZM15.6445 7.54615L16.4588 9.37286C16.4719 9.36704 16.4758 9.36685 16.4687 9.36844C16.462 9.36995 16.439 9.3745 16.3998 9.3745V7.3745V5.3745C15.8486 5.3745 15.3125 5.50441 14.8302 5.71944L15.6445 7.54615ZM16.3998 7.3745V9.3745C16.3271 9.3745 16.1216 9.35667 15.8872 9.18794L17.0556 7.5647L18.2239 5.94146C17.638 5.51973 16.9755 5.3745 16.3998 5.3745V7.3745ZM17.0556 7.5647L15.8885 9.1889C15.6729 9.03399 15.5518 8.83202 15.4993 8.67708C15.4539 8.54285 15.4724 8.48599 15.4655 8.55817L17.4565 8.74805L19.4474 8.93793C19.5356 8.01387 19.3428 6.74535 18.2226 5.9405L17.0556 7.5647Z" fill="white" mask="url(#path-1-inside-1_81_2723)"/>
<mask id="path-3-inside-2_81_2723" fill="white">
<path d="M29.6528 10.8266L26.021 8.57755V1C26.021 0.7239 25.7973 0.5 25.521 0.5H6.23851C5.96241 0.5 5.73851 0.7239 5.73851 1V8.50795C4.00281 9.60215 2.83551 10.4003 2.28026 10.8752C1.51756 11.5273 1.09766 12.4568 1.09766 13.492V28.0044C1.09761 29.9319 2.66571 31.5 4.59296 31.5H27.4072C28.349 31.5 29.2034 31.1238 29.8326 30.5159C29.8337 30.5147 29.8353 30.5144 29.8364 30.5132C29.8369 30.5126 29.837 30.5119 29.8376 30.5112C30.4929 29.8755 30.9023 28.9875 30.9023 28.0044V13.492C30.9023 12.6196 30.5752 11.3982 29.6528 10.8266ZM26.021 9.75365L28.5506 11.3202L26.021 13.5267V9.75365ZM29.392 11.913C29.7402 12.3128 29.9023 12.9515 29.9023 13.492V28.0044C29.9023 28.5417 29.7278 29.0368 29.4378 29.4446L19.7955 20.2833L29.392 11.913ZM6.73851 1.5H25.021V14.3984L15.999 22.268L6.73846 14.1943L6.73851 1.5ZM5.73851 9.69205V13.3232L3.38956 11.2755C3.91746 10.8836 4.71066 10.3488 5.73851 9.69205ZM2.09761 28.0044V13.492C2.09761 12.8956 2.28741 12.3717 2.63671 11.946L12.5624 20.5989L2.89066 29.8188C2.40541 29.3632 2.09761 28.721 2.09761 28.0044ZM4.59296 30.5C4.30676 30.5 4.03606 30.4416 3.77981 30.3525L13.3193 21.2588L15.6703 23.3084C15.7646 23.3904 15.8818 23.4314 15.9989 23.4314C16.1161 23.4314 16.2335 23.3904 16.3275 23.3081L19.0386 20.9435L28.7036 30.1263C28.3247 30.3589 27.8836 30.5 27.4072 30.5H4.59296Z"/>
</mask>
<path d="M29.6528 10.8266L26.021 8.57755V1C26.021 0.7239 25.7973 0.5 25.521 0.5H6.23851C5.96241 0.5 5.73851 0.7239 5.73851 1V8.50795C4.00281 9.60215 2.83551 10.4003 2.28026 10.8752C1.51756 11.5273 1.09766 12.4568 1.09766 13.492V28.0044C1.09761 29.9319 2.66571 31.5 4.59296 31.5H27.4072C28.349 31.5 29.2034 31.1238 29.8326 30.5159C29.8337 30.5147 29.8353 30.5144 29.8364 30.5132C29.8369 30.5126 29.837 30.5119 29.8376 30.5112C30.4929 29.8755 30.9023 28.9875 30.9023 28.0044V13.492C30.9023 12.6196 30.5752 11.3982 29.6528 10.8266ZM26.021 9.75365L28.5506 11.3202L26.021 13.5267V9.75365ZM29.392 11.913C29.7402 12.3128 29.9023 12.9515 29.9023 13.492V28.0044C29.9023 28.5417 29.7278 29.0368 29.4378 29.4446L19.7955 20.2833L29.392 11.913ZM6.73851 1.5H25.021V14.3984L15.999 22.268L6.73846 14.1943L6.73851 1.5ZM5.73851 9.69205V13.3232L3.38956 11.2755C3.91746 10.8836 4.71066 10.3488 5.73851 9.69205ZM2.09761 28.0044V13.492C2.09761 12.8956 2.28741 12.3717 2.63671 11.946L12.5624 20.5989L2.89066 29.8188C2.40541 29.3632 2.09761 28.721 2.09761 28.0044ZM4.59296 30.5C4.30676 30.5 4.03606 30.4416 3.77981 30.3525L13.3193 21.2588L15.6703 23.3084C15.7646 23.3904 15.8818 23.4314 15.9989 23.4314C16.1161 23.4314 16.2335 23.3904 16.3275 23.3081L19.0386 20.9435L28.7036 30.1263C28.3247 30.3589 27.8836 30.5 27.4072 30.5H4.59296Z" fill="white"/>
<path d="M29.6528 10.8266L30.7063 9.12659L30.7058 9.12629L29.6528 10.8266ZM26.021 8.57755H24.021V9.69145L24.968 10.2779L26.021 8.57755ZM5.73851 8.50795L6.80508 10.1998L7.73851 9.61138V8.50795H5.73851ZM2.28026 10.8752L3.57995 12.3954L3.58029 12.3951L2.28026 10.8752ZM1.09766 28.0044L3.09766 28.0045V28.0044H1.09766ZM29.8326 30.5159L31.2223 31.9541L31.2347 31.9422L31.2468 31.9301L29.8326 30.5159ZM29.8364 30.5132L31.2816 31.8956L31.2963 31.8803L31.3107 31.8647L29.8364 30.5132ZM29.8376 30.5112L28.445 29.0757L28.4029 29.1166L28.3632 29.1598L29.8376 30.5112ZM30.9023 13.492L28.9023 13.4918V13.492H30.9023ZM26.021 9.75365L27.0739 8.05329L24.021 6.16265V9.75365H26.021ZM28.5506 11.3202L29.8653 12.8274L31.9072 11.0464L29.6036 9.61984L28.5506 11.3202ZM26.021 13.5267H24.021V17.925L27.3356 15.0339L26.021 13.5267ZM29.392 11.913L30.9001 10.5995L29.5856 9.09017L28.0773 10.4058L29.392 11.913ZM29.4378 29.4446L28.0602 30.8945L29.7314 32.4824L31.0676 30.6038L29.4378 29.4446ZM19.7955 20.2833L18.4809 18.776L16.8253 20.22L18.4179 21.7332L19.7955 20.2833ZM6.73851 1.5V-0.5H4.73851L4.73851 1.49999L6.73851 1.5ZM25.021 1.5H27.021V-0.5H25.021V1.5ZM25.021 14.3984L26.3356 15.9056L27.021 15.3079V14.3984H25.021ZM15.999 22.268L14.6846 23.7756L15.9993 24.9217L17.3136 23.7752L15.999 22.268ZM6.73846 14.1943L4.73846 14.1943L4.73845 15.104L5.42414 15.7018L6.73846 14.1943ZM5.73851 9.69205H7.73851V6.04073L4.66165 8.00671L5.73851 9.69205ZM5.73851 13.3232L4.42426 14.8308L7.73851 17.7201V13.3232H5.73851ZM3.38956 11.2755L2.1975 9.66957L0.202513 11.1504L2.07531 12.7831L3.38956 11.2755ZM2.63671 11.946L3.95096 10.4385L2.39778 9.08447L1.09065 10.6773L2.63671 11.946ZM12.5624 20.5989L13.9423 22.0466L15.5302 20.5329L13.8766 19.0914L12.5624 20.5989ZM2.89066 29.8188L1.52169 31.2769L2.9011 32.572L4.27065 31.2664L2.89066 29.8188ZM3.77981 30.3525L2.39982 28.9049L0.0283377 31.1655L3.12297 32.2416L3.77981 30.3525ZM13.3193 21.2588L14.6335 19.7512L13.2591 18.553L11.9393 19.8112L13.3193 21.2588ZM15.6703 23.3084L14.356 24.816L14.3571 24.8169L15.6703 23.3084ZM16.3275 23.3081L15.0129 21.8009L15.01 21.8034L16.3275 23.3081ZM19.0386 20.9435L20.4162 19.4935L19.0962 18.2394L17.724 19.4362L19.0386 20.9435ZM28.7036 30.1263L29.7497 31.8309L31.9682 30.4693L30.0811 28.6764L28.7036 30.1263ZM29.6528 10.8266L30.7058 9.12629L27.0739 6.87719L26.021 8.57755L24.968 10.2779L28.5998 12.527L29.6528 10.8266ZM26.021 8.57755H28.021V1H26.021H24.021V8.57755H26.021ZM26.021 1H28.021C28.021 -0.380018 26.9025 -1.5 25.521 -1.5V0.5V2.5C24.6921 2.5 24.021 1.82782 24.021 1H26.021ZM25.521 0.5V-1.5H6.23851V0.5V2.5H25.521V0.5ZM6.23851 0.5V-1.5C4.85784 -1.5 3.73851 -0.38067 3.73851 1H5.73851H7.73851C7.73851 1.82847 7.06698 2.5 6.23851 2.5V0.5ZM5.73851 1H3.73851V8.50795H5.73851H7.73851V1H5.73851ZM5.73851 8.50795L4.67194 6.81608C2.95224 7.90019 1.66291 8.77146 0.980218 9.35541L2.28026 10.8752L3.58029 12.3951C4.00811 12.0291 5.05337 11.3041 6.80508 10.1998L5.73851 8.50795ZM2.28026 10.8752L0.980562 9.35512C-0.242668 10.401 -0.902344 11.8936 -0.902344 13.492H1.09766H3.09766C3.09766 13.02 3.27778 12.6537 3.57995 12.3954L2.28026 10.8752ZM1.09766 13.492H-0.902344V28.0044H1.09766H3.09766V13.492H1.09766ZM1.09766 28.0044L-0.902344 28.0043C-0.902422 31.0364 1.56105 33.5 4.59296 33.5V31.5V29.5C3.77036 29.5 3.09763 28.8274 3.09766 28.0045L1.09766 28.0044ZM4.59296 31.5V33.5H27.4072V31.5V29.5H4.59296V31.5ZM27.4072 31.5V33.5C28.8933 33.5 30.2392 32.9041 31.2223 31.9541L29.8326 30.5159L28.4428 29.0776C28.1676 29.3435 27.8047 29.5 27.4072 29.5V31.5ZM29.8326 30.5159L31.2468 31.9301C31.1236 32.0533 31.0074 32.137 30.9297 32.1879C30.8913 32.2131 30.8595 32.232 30.8405 32.2431C30.8308 32.2487 30.823 32.2532 30.8185 32.2557C30.8147 32.2579 30.811 32.2599 30.8125 32.2591C30.8126 32.259 30.8171 32.2565 30.8225 32.2534C30.8283 32.2501 30.8375 32.2449 30.8486 32.2384C30.8704 32.2255 30.9051 32.2046 30.9466 32.1769C31.0306 32.1207 31.1535 32.0296 31.2816 31.8956L29.8364 30.5132L28.3911 29.1308C28.5187 28.9973 28.6409 28.9067 28.7243 28.851C28.7655 28.8235 28.7999 28.8027 28.8214 28.7901C28.8323 28.7837 28.8413 28.7786 28.8469 28.7754C28.8498 28.7737 28.8522 28.7724 28.8537 28.7715C28.8552 28.7707 28.8563 28.77 28.8565 28.77C28.8578 28.7692 28.8539 28.7714 28.8499 28.7737C28.8453 28.7763 28.8373 28.7808 28.8275 28.7865C28.8081 28.7978 28.776 28.8169 28.7372 28.8423C28.6589 28.8937 28.5421 28.9779 28.4183 29.1016L29.8326 30.5159ZM29.8364 30.5132L31.3107 31.8647C31.371 31.7989 31.4218 31.7346 31.4643 31.675C31.5066 31.6157 31.5401 31.562 31.5656 31.5181C31.5784 31.4961 31.5894 31.4763 31.5985 31.4593C31.6076 31.4424 31.6152 31.4277 31.621 31.4162C31.6268 31.4048 31.6313 31.3956 31.6341 31.3899C31.6355 31.387 31.6366 31.3847 31.6373 31.3833C31.6377 31.3825 31.638 31.3819 31.6381 31.3816C31.6382 31.3814 31.6383 31.3812 31.6383 31.3811C31.6384 31.3811 31.6384 31.3811 31.6384 31.381C31.6384 31.381 31.6384 31.381 31.6384 31.381C31.6384 31.381 31.6384 31.381 31.6384 31.381C31.6385 31.3808 31.638 31.3819 31.6374 31.3831C31.6367 31.3845 31.6356 31.3868 31.6342 31.3897C31.6315 31.3952 31.627 31.4044 31.6212 31.4157C31.6155 31.4271 31.6079 31.4417 31.5989 31.4586C31.5898 31.4755 31.5789 31.4952 31.5662 31.5171C31.5407 31.5608 31.5074 31.6144 31.4652 31.6735C31.4227 31.733 31.372 31.7971 31.3119 31.8627L29.8376 30.5112L28.3632 29.1598C28.303 29.2256 28.2521 29.2898 28.2096 29.3495C28.1673 29.4087 28.1338 29.4625 28.1083 29.5064C28.0955 29.5283 28.0845 29.5482 28.0754 29.5651C28.0663 29.5821 28.0587 29.5967 28.0529 29.6082C28.0471 29.6196 28.0426 29.6289 28.0398 29.6345C28.0384 29.6374 28.0373 29.6398 28.0366 29.6412C28.0362 29.6419 28.036 29.6425 28.0358 29.6429C28.0357 29.6431 28.0356 29.6432 28.0356 29.6433C28.0355 29.6434 28.0355 29.6434 28.0355 29.6434C28.0355 29.6434 28.0355 29.6434 28.0355 29.6435C28.0355 29.6435 28.0355 29.6435 28.0355 29.6435C28.0354 29.6437 28.0359 29.6426 28.0365 29.6413C28.0372 29.6399 28.0383 29.6376 28.0397 29.6348C28.0424 29.6292 28.0469 29.62 28.0527 29.6087C28.0584 29.5973 28.066 29.5827 28.075 29.5659C28.0841 29.549 28.095 29.5293 28.1077 29.5074C28.1332 29.4636 28.1666 29.4101 28.2087 29.351C28.2512 29.2915 28.3019 29.2274 28.362 29.1618L29.8364 30.5132ZM29.8376 30.5112L31.2301 31.9468C32.2541 30.9534 32.9023 29.5552 32.9023 28.0044H30.9023H28.9023C28.9023 28.4198 28.7317 28.7976 28.445 29.0757L29.8376 30.5112ZM30.9023 28.0044H32.9023V13.492H30.9023H28.9023V28.0044H30.9023ZM30.9023 13.492L32.9023 13.4921C32.9023 12.342 32.4995 10.2378 30.7063 9.12659L29.6528 10.8266L28.5993 12.5267C28.6001 12.5272 28.6816 12.5801 28.7701 12.7983C28.8589 13.0172 28.9023 13.2812 28.9023 13.4918L30.9023 13.492ZM26.021 9.75365L24.968 11.454L27.4976 13.0206L28.5506 11.3202L29.6036 9.61984L27.0739 8.05329L26.021 9.75365ZM28.5506 11.3202L27.236 9.81298L24.7063 12.0194L26.021 13.5267L27.3356 15.0339L29.8653 12.8274L28.5506 11.3202ZM26.021 13.5267H28.021V9.75365H26.021H24.021V13.5267H26.021ZM29.392 11.913L27.8838 13.2265C27.8495 13.1871 27.8382 13.1636 27.8407 13.1684C27.8428 13.1726 27.8524 13.1926 27.8638 13.2301C27.875 13.2671 27.8852 13.3118 27.8923 13.3609C27.8994 13.4101 27.9023 13.4553 27.9023 13.492H29.9023H31.9023C31.9023 12.6658 31.6746 11.4887 30.9001 10.5995L29.392 11.913ZM29.9023 13.492H27.9023V28.0044H29.9023H31.9023V13.492H29.9023ZM29.9023 28.0044H27.9023C27.9023 28.0991 27.8734 28.1934 27.8079 28.2854L29.4378 29.4446L31.0676 30.6038C31.5821 29.8803 31.9023 28.9844 31.9023 28.0044H29.9023ZM29.4378 29.4446L30.8153 27.9947L21.1731 18.8333L19.7955 20.2833L18.4179 21.7332L28.0602 30.8945L29.4378 29.4446ZM19.7955 20.2833L21.1101 21.7905L30.7066 13.4202L29.392 11.913L28.0773 10.4058L18.4809 18.776L19.7955 20.2833ZM6.73851 1.5V3.5H25.021V1.5V-0.5H6.73851V1.5ZM25.021 1.5H23.021V14.3984H25.021H27.021V1.5H25.021ZM25.021 14.3984L23.7063 12.8913L14.6843 20.7609L15.999 22.268L17.3136 23.7752L26.3356 15.9056L25.021 14.3984ZM15.999 22.268L17.3133 20.7605L8.05277 12.6868L6.73846 14.1943L5.42414 15.7018L14.6846 23.7756L15.999 22.268ZM6.73846 14.1943L8.73846 14.1943L8.73851 1.50001L6.73851 1.5L4.73851 1.49999L4.73846 14.1943L6.73846 14.1943ZM5.73851 9.69205H3.73851V13.3232H5.73851H7.73851V9.69205H5.73851ZM5.73851 13.3232L7.05276 11.8157L4.70381 9.76794L3.38956 11.2755L2.07531 12.7831L4.42426 14.8308L5.73851 13.3232ZM3.38956 11.2755L4.58161 12.8814C5.0531 12.5315 5.80001 12.0262 6.81536 11.3774L5.73851 9.69205L4.66165 8.00671C3.62131 8.67144 2.78182 9.23585 2.1975 9.66957L3.38956 11.2755ZM2.09761 28.0044H4.09761V13.492H2.09761H0.0976063V28.0044H2.09761ZM2.09761 13.492H4.09761C4.09761 13.344 4.1359 13.2719 4.18277 13.2148L2.63671 11.946L1.09065 10.6773C0.438911 11.4715 0.0976063 12.4472 0.0976063 13.492H2.09761ZM2.63671 11.946L1.32246 13.4536L11.2481 22.1065L12.5624 20.5989L13.8766 19.0914L3.95096 10.4385L2.63671 11.946ZM12.5624 20.5989L11.1824 19.1513L1.51066 28.3712L2.89066 29.8188L4.27065 31.2664L13.9423 22.0466L12.5624 20.5989ZM2.89066 29.8188L4.25962 28.3607C4.14943 28.2573 4.09761 28.1319 4.09761 28.0044H2.09761H0.0976063C0.0976063 29.31 0.661378 30.4691 1.52169 31.2769L2.89066 29.8188ZM4.59296 30.5V28.5C4.58224 28.5 4.53699 28.4983 4.43665 28.4634L3.77981 30.3525L3.12297 32.2416C3.53512 32.3849 4.03127 32.5 4.59296 32.5V30.5ZM3.77981 30.3525L5.15979 31.8001L14.6992 22.7064L13.3193 21.2588L11.9393 19.8112L2.39982 28.9049L3.77981 30.3525ZM13.3193 21.2588L12.005 22.7664L14.356 24.816L15.6703 23.3084L16.9846 21.8008L14.6335 19.7512L13.3193 21.2588ZM15.6703 23.3084L14.3571 24.8169C14.8272 25.2262 15.4149 25.4314 15.9989 25.4314V23.4314V21.4314C16.3486 21.4314 16.7019 21.5547 16.9835 21.7999L15.6703 23.3084ZM15.9989 23.4314V25.4314C16.5816 25.4314 17.1722 25.2268 17.645 24.8129L16.3275 23.3081L15.01 21.8034C15.2948 21.5541 15.6505 21.4314 15.9989 21.4314V23.4314ZM16.3275 23.3081L17.6421 24.8154L20.3532 22.4507L19.0386 20.9435L17.724 19.4362L15.0129 21.8009L16.3275 23.3081ZM19.0386 20.9435L17.661 22.3934L27.326 31.5762L28.7036 30.1263L30.0811 28.6764L20.4162 19.4935L19.0386 20.9435ZM28.7036 30.1263L27.6574 28.4217C27.5622 28.4802 27.4795 28.5 27.4072 28.5V30.5V32.5C28.2877 32.5 29.0871 32.2375 29.7497 31.8309L28.7036 30.1263ZM27.4072 30.5V28.5H4.59296V30.5V32.5H27.4072V30.5Z" fill="white" mask="url(#path-3-inside-2_81_2723)"/>
</svg>
