<svg width="35" height="35" viewBox="0 0 35 35" fill="none" xmlns="http://www.w3.org/2000/svg">
<g clip-path="url(#clip0_81_2690)">
<path d="M17.5 0C7.83398 0 0 7.83398 0 17.5C0 27.166 7.83398 35 17.5 35C27.166 35 35 27.166 35 17.5C35 7.83398 27.166 0 17.5 0ZM28.4238 28.417C27.002 29.8389 25.3545 30.9531 23.5156 31.7256C21.6152 32.5322 19.5918 32.9355 17.5 32.9355C15.415 32.9355 13.3916 32.5254 11.4844 31.7256C9.64551 30.9463 7.99121 29.832 6.57617 28.417C5.1543 26.9951 4.04004 25.3477 3.26758 23.5088C2.46094 21.6084 2.05078 19.585 2.05078 17.5C2.05078 15.415 2.46094 13.3916 3.26074 11.4844C4.04004 9.64551 5.1543 7.99121 6.56934 6.57617C7.99805 5.1543 9.64551 4.04004 11.4844 3.26074C13.3916 2.46094 15.415 2.05078 17.5 2.05078C19.585 2.05078 21.6084 2.46094 23.5156 3.26074C25.3545 4.04004 27.0088 5.1543 28.4238 6.56934C29.8457 7.99121 30.96 9.63867 31.7324 11.4775C32.5391 13.3779 32.9424 15.4014 32.9424 17.4932C32.9424 19.5781 32.5322 21.6016 31.7324 23.5088C30.9531 25.3477 29.8389 27.002 28.4238 28.417Z" fill="white"/>
<path d="M12.6055 13.9043H9.19434V24.8213H12.6055V13.9043Z" fill="white"/>
<path d="M10.8281 8.75C9.57031 8.75 8.74316 9.56348 8.74316 10.6436C8.74316 11.7031 9.54297 12.5371 10.7803 12.5371H10.8076C12.0928 12.5371 12.8926 11.6963 12.8857 10.6436C12.8584 9.56348 12.0859 8.75 10.8281 8.75Z" fill="white"/>
<path d="M21.9229 13.8018C19.9678 13.8018 18.7441 14.8682 18.5186 15.6201V13.9043H14.6836C14.7314 14.8135 14.6836 24.8213 14.6836 24.8213H18.5186V18.9219C18.5186 18.5869 18.5049 18.2588 18.6006 18.0264C18.8604 17.3701 19.4277 16.6865 20.4463 16.6865C21.7793 16.6865 22.3809 17.6982 22.3809 19.1748V24.8213H26.25V18.751C26.25 15.374 24.3496 13.8018 21.9229 13.8018Z" fill="white"/>
</g>
<defs>
<clipPath id="clip0_81_2690">
<rect width="35" height="35" fill="white"/>
</clipPath>
</defs>
</svg>
