<svg width="34" height="34" viewBox="0 0 34 34" fill="none" xmlns="http://www.w3.org/2000/svg">
<path fill-rule="evenodd" clip-rule="evenodd" d="M17.0002 1.77088C13.3827 1.76902 9.88271 3.05493 7.12688 5.39834C4.37106 7.74176 2.5394 10.9896 1.9599 14.5604C1.38039 18.1312 2.09089 21.7916 3.96416 24.8863C5.83743 27.981 8.75114 30.3078 12.1835 31.45C12.9485 31.5917 13.2248 31.1242 13.2248 30.7417C13.2248 30.3592 13.2248 29.4242 13.2248 28.1563C8.97479 29.0771 8.09646 26.1163 8.09646 26.1163C7.81534 25.1795 7.20371 24.3766 6.37521 23.8567C4.99396 22.9146 6.48146 22.9288 6.48146 22.9288C6.96394 22.9963 7.42465 23.1731 7.8285 23.4456C8.23234 23.7181 8.56867 24.0792 8.81187 24.5013C10.1719 26.8317 12.3535 26.1588 13.246 25.7692C13.3165 24.9954 13.6606 24.2721 14.2165 23.7292C10.8306 23.3467 7.27479 22.0434 7.27479 16.2067C7.25235 14.6925 7.81573 13.2283 8.84729 12.1196C8.37863 10.8067 8.43188 9.364 8.99604 8.08921C8.99604 8.08921 10.271 7.67838 13.1823 9.64754C15.6773 8.96753 18.3089 8.96753 20.804 9.64754C23.7152 7.67838 24.9902 8.08921 24.9902 8.08921C25.5501 9.36498 25.6033 10.8061 25.139 12.1196C26.1686 13.229 26.7295 14.6934 26.7044 16.2067C26.7044 22.0575 23.1627 23.3396 19.7556 23.7221C20.1212 24.0925 20.4028 24.5373 20.5812 25.0262C20.7597 25.5151 20.8308 26.0366 20.7898 26.5555C20.7898 28.5884 20.7898 30.2317 20.7898 30.7346C20.7898 31.2375 21.066 31.613 21.8381 31.443C25.267 30.2962 28.1761 27.967 30.045 24.8719C31.9138 21.7768 32.6206 18.1178 32.0387 14.5493C31.4569 10.9809 29.6245 7.73587 26.8693 5.39471C24.1141 3.05355 20.6158 1.76901 17.0002 1.77088Z" stroke="white" stroke-width="1.5" stroke-linecap="round" stroke-linejoin="round"/>
</svg>
