<svg width="40" height="40" viewBox="0 0 40 40" fill="none" xmlns="http://www.w3.org/2000/svg">
<path fill-rule="evenodd" clip-rule="evenodd" d="M5.83321 20C5.83321 12.176 12.1758 5.83333 19.9998 5.83333C27.8238 5.83333 34.1665 12.176 34.1665 20C34.1665 27.824 27.8238 34.1667 19.9998 34.1667C17.2128 34.1667 14.6186 33.3637 12.4298 31.9768C12.0225 31.7188 11.5233 31.6498 11.0612 31.7877L6.26266 33.2198L8.06939 28.9922C8.28294 28.4925 8.23949 27.9202 7.95296 27.4585C6.60934 25.2933 5.83321 22.7398 5.83321 20ZM19.9998 2.5C10.3349 2.5 2.49987 10.335 2.49987 20C2.49987 23.0635 3.28844 25.9472 4.67426 28.4545L1.80062 35.1783C1.54659 35.7728 1.65919 36.4605 2.08954 36.9428C2.51989 37.4253 3.19037 37.6153 3.80982 37.4303L11.3089 35.1925C13.8706 36.6608 16.8393 37.5 19.9998 37.5C29.6648 37.5 37.4998 29.665 37.4998 20C37.4998 10.335 29.6648 2.5 19.9998 2.5ZM23.8207 23.6373L21.6303 25.1802C20.6045 24.5958 19.4703 23.7802 18.3327 22.6425C17.15 21.4598 16.2732 20.2388 15.6267 19.1188L17.0187 17.9373C17.616 17.4303 17.7795 16.5756 17.4115 15.8838L15.6379 12.5505C15.3991 12.1016 14.9684 11.7863 14.4684 11.6942C13.9684 11.6021 13.4537 11.7433 13.0706 12.0777L12.5448 12.5366C11.2802 13.6402 10.5323 15.4538 11.1522 17.2902C11.7948 19.1938 13.1662 22.19 15.9757 24.9995C18.9983 28.0222 22.0687 29.2125 23.8642 29.6748C25.3108 30.0472 26.6798 29.548 27.6445 28.762L28.6303 27.9587C29.052 27.6152 29.2795 27.0873 29.2398 26.5448C29.2 26.0023 28.898 25.5133 28.4307 25.2348L25.6335 23.5682C25.0685 23.2317 24.3585 23.2587 23.8207 23.6373Z" fill="white"/>
</svg>
